<?xml version="1.0" encoding="utf-8"?>
<!-- Generator: Adobe Illustrator 26.5.2, SVG Export Plug-In . SVG Version: 6.00 Build 0)  -->
<svg version="1.1" id="Ebene_1" xmlns="http://www.w3.org/2000/svg" xmlns:xlink="http://www.w3.org/1999/xlink" x="0px" y="0px"
	 viewBox="0 0 580 580" style="enable-background:new 0 0 580 580;" xml:space="preserve">
<style type="text/css">
	.st0{fill:#5F5E5E;}
</style>
<g>
	<path class="st0" d="M150.9,401.2c-50.9,0-92.4-41.4-92.4-92.4s41.4-92.4,92.4-92.4c2.9,0,6,0.2,8.8,0.4
		c4.1-53.5,48.5-94.9,102.2-94.9c25.6,0,50.1,9.5,69.1,26.8c18.1,16.5,29.6,38.6,32.7,62.5c9.2-4.3,19-6.4,29.1-6.4
		c38,0,69.1,30.4,70.1,68.2c15,1.9,28.9,9.2,39.2,20.4c10.8,11.9,16.8,27.2,16.8,43.3c0,35.5-28.8,64.3-64.3,64.3L150.9,401.2
		L150.9,401.2z M150.9,232.9c-41.8,0-75.8,34-75.8,75.8s34,75.8,75.8,75.8h303.7c26.3,0,47.7-21.4,47.7-47.7s-21.4-47.7-47.7-47.7
		h-0.4c-2.5,0-4.9-1.1-6.5-3.1c-1.6-1.9-2.2-4.5-1.6-7c0.2-0.9,0.2-2.5,0.2-4c0-29.5-24-53.5-53.5-53.5c-11.3,0-22.2,3.6-31.7,10.5
		c-1.4,1-3.1,1.6-4.9,1.6c-1.3,0-2.6-0.3-3.8-0.9c-2.8-1.4-4.5-4.3-4.5-7.4v-0.6c0-47.5-38.6-86.1-86.1-86.1
		c-47.3,0-85.9,38.6-85.9,86.1v1.8c0,2.5-1.1,4.9-3.1,6.5c-1.4,1.2-3.3,1.8-5.2,1.8c-0.6,0-1.2-0.1-1.8-0.2
		C161.1,233.4,156.1,232.9,150.9,232.9z"/>
	<path class="st0" d="M454.6,398.9H150.9c-49.8,0-90.2-40.4-90.2-90.2s40.4-90.2,90.2-90.2c3.7,0,7.3,0.3,10.9,0.7
		c2.9-52.9,46.6-95.1,100.1-95.1c52,0,94.9,39.8,99.9,90.4c9.7-5,20.2-7.6,30.9-7.6c37.5,0,67.9,30.4,67.9,67.9l0,0
		c31.4,3,56,29.6,56,61.8C516.7,371.1,488.9,398.9,454.6,398.9z M150.9,230.8c-43,0-78,35-78,78s35,78,78,78h303.7
		c27.6,0,49.9-22.4,49.9-49.9S482.1,287,454.6,287h-0.4c-1.8,0-3.6-0.8-4.7-2.3c-1.2-1.4-1.6-3.4-1.2-5.1c0.3-1.2,0.3-2.8,0.3-4.5
		c0-30.8-25-55.7-55.7-55.7c-11.8,0-23.1,3.8-32.9,10.9c-1.8,1.3-4.3,1.5-6.3,0.5s-3.3-3.1-3.3-5.4v-0.6c0-48.7-39.6-88.2-88.2-88.2
		s-88.1,39.6-88.1,88.2v1.8c0,1.8-0.8,3.6-2.3,4.7c-1.4,1.2-3.4,1.6-5.1,1.2C161.5,231.3,156.2,230.8,150.9,230.8z"/>
</g>
</svg>
