<?xml version="1.0" encoding="utf-8"?>
<!-- Generator: Adobe Illustrator 26.5.2, SVG Export Plug-In . SVG Version: 6.00 Build 0)  -->
<svg version="1.1" id="Ebene_1" xmlns="http://www.w3.org/2000/svg" xmlns:xlink="http://www.w3.org/1999/xlink" x="0px" y="0px"
	 viewBox="0 0 1504 595.3" style="enable-background:new 0 0 1504 595.3;" xml:space="preserve">
<style type="text/css">
	.st0{fill:#B2B2B2;}
</style>
<g>
	<path class="st0" d="M253.5,259.3c11.4-22.8,23.7-42.3,37.1-58.8c1.8-2,3.9-2.9,5.7-2.5c2,0.3,3.4,1.4,4.5,3.1
		c1.1,1.5,1.2,3.2,0.5,4.9c-0.2,0.3-0.8,1.1-1.7,2.3l-3.2,3.7c-0.9,1.1-1.7,2-2.5,2.9c-0.8,0.9-1.4,1.7-1.8,2.2
		c-3.4,4.6-7.9,11.7-13.6,21.3c-5.5,9.4-9.7,16.6-12.2,21.7c1.8,0,3.4,0,4.9-0.2h3.4c1.8,0.2,3.2,0.9,3.8,2.6
		c0.8,1.7,0.9,3.5,0.5,5.2c-0.5,1.8-1.5,2.9-3.4,3.2h-4.8c-2.8-0.2-5.9,0-8.9,0.2c-1.2,0.2-2,0.6-2.6,1.7
		c-12.2,23.6-23.9,51.3-35,83.2c0,0.2,0.3,0.3,0.5,0.6c0.6,0.8,1.4,1.7,2,2.9c0.6,1.1,0.6,2.3,0.3,3.5c-0.5,1.2-2,2.3-4.5,3.2
		c-2.3,0.6-4.5,0.5-6.5-0.9c-1.8-1.2-2.9-3.1-3.2-5.5c-0.2-4.8,2.2-12.9,6.8-24.9c4.8-12,9.1-22.6,13.4-32.2
		c4.2-9.5,7.7-17.7,10.8-24.2c1.2-2.5,2.2-4.5,2.8-6h-3.8c-4.5,0.2-9.9,0.3-16.2,0.6c-6.2,0.2-10.8,0.5-13.9,0.8
		c-1.2,0.2-2.2,0.8-2.6,1.8c-11.5,21.9-20.5,41.4-26.9,58.7c-0.3,0.8-0.5,1.7-0.9,2.8c-0.3,1.2-0.6,2.3-1.1,3.4
		c-0.3,1.1-0.8,2-1.2,2.6c-1.1,1.2-2.5,1.7-4.2,1.5c-1.8-0.3-3.2-1.2-4.5-2.6c-1.1-1.5-1.4-3.4-0.8-5.9c1.4-3.7,2.9-8.9,4.6-15.4
		c1.8-6.5,3.1-13.4,3.5-20.6c0.5-7.2-0.5-12.8-2.8-16.9c-1.4-1.8-2.9-3.1-4.5-3.5c-1.5-0.5-3.4-0.6-5.4-0.6h-1.7
		c-2-0.2-3.2-1.2-4-3.1c-0.8-1.7-0.8-3.5-0.3-5.4c0.5-1.8,1.5-2.9,3.2-3.4c4.2-0.3,10-0.6,17.1-0.9c8.2-0.3,15.1-0.8,20.8-1.2
		c0.8-0.2,1.2-0.3,1.7-0.8c0.3-0.3,0.8-0.8,0.9-1.2c8.9-17.4,19.2-33.9,30.8-49.1c2-2.5,4.2-3.2,6.2-2.8c2.2,0.5,3.7,1.7,4.6,3.5
		c1.1,2,0.8,3.9-0.6,5.5c-9.9,11.7-18.3,24.5-25.4,38.2l-1.7,3.2c-0.2,0-0.2,0.3-0.2,0.5c-0.2,0.2-0.2,0.3-0.3,0.6l33.1-1.4
		C251.8,261.5,252.8,260.7,253.5,259.3z M187.9,294.8l6.9-14.2c0.6-1.5,1.4-2.9,2-4.5c-1.4,0.3-2.6,0.5-4,0.6
		c-3.1,0.3-6.2,0.8-9.4,1.1C186.3,283.5,187.7,289.2,187.9,294.8z"/>
	<path class="st0" d="M296.3,314c-0.3-3.8,0.3-8,2-12.6c1.5-4.5,3.4-8.5,5.4-11.7c-0.6,0.6-1.5,1.5-2.6,2.9
		c-2.8,3.1-6.5,7.1-10.9,11.7c-4.6,4.6-9.4,8.8-14.3,12.5c-4.3,3.1-7.7,4.5-10,4.3c-2.3-0.2-4-1.1-5.1-2.8c-2-2.3-1.8-5.9,0.3-10.6
		c2.3-4.5,6.5-9.9,12.2-16c5.9-6.3,12-11.5,18.3-15.7c6.3-4.2,11.5-5.5,15.6-3.8c0.6,0.3,1.2,0.3,1.8,0l1.8-1.2
		c0.8-0.8,1.7-1.4,2.9-1.8c1.1-0.2,2.5,0.2,4,1.1c1.4,0.9,2.6,2.2,3.5,3.7c0.9,1.4,1.1,2.8,0.5,4.2c-0.6,1.1-1.4,2.6-2.6,4.6
		c-2,3.4-4,7.2-6.2,11.4c-2.2,4.3-3.5,8-4.3,11.4c-0.6,3.2,0.2,5.1,2.6,5.5c3.2,0.2,7.9-1.2,13.6-4.3c5.9-3.1,11.7-6.8,17.7-11.2
		c6-4.3,10.8-8.5,14.5-12.3c1.5-1.5,3.1-2,4.6-1.7c1.4,0.3,2.3,1.2,2.6,2.9c0.2,1.5-0.8,3.5-2.9,5.9c-7.7,8-17.6,15.4-29.3,22.5
		c-11.7,7.1-21.3,10-28.6,9.1C299,320.3,296.7,317.9,296.3,314z"/>
	<path class="st0" d="M345.4,329.1c-2.2,0-4.2-0.9-5.5-2.5c-1.5-1.7-1.8-4-0.9-6.9c2.6-7.2,5.7-14.6,9.1-22
		c3.4-7.5,8.2-16.6,14.3-27.3c1.5-2.6,3.1-4.2,4.6-4.6c1.4-0.5,2.6-0.2,3.9,0.6c1.4,1.1,2.2,2.3,2.5,4.2c0.3,1.7-0.6,3.5-2.8,5.5
		c-1.1,1.1-2.5,3.4-4.5,6.8c-1.8,3.5-3.7,6.9-5.4,10.3s-2.6,5.5-2.8,6.5c1.2-1.5,2.5-3.2,3.8-5.1c2.9-3.8,6-7.7,9.1-11.7
		c3.2-3.9,6-6.9,8.6-9.2c2.3-1.8,4.6-2.3,6.9-1.5c2.3,0.8,3.7,2.5,4.2,5.1c0.2,1.5,0.2,3.2,0,5.1c-0.2,1.4-0.3,2.6-0.2,3.9
		c0,1.1,0.3,2,0.9,2.5c1.5,1.1,4.3,0.9,8-0.3c3.8-1.1,7.5-2.8,11.1-4.9c1.4-0.8,2.5-0.6,3.2,0.5c0.9,1.2,1.2,2.6,0.9,4.3
		c-0.3,1.7-1.5,3.2-3.7,4.5c-5.7,2.9-11.4,4.9-16.8,5.9c-5.5,1.1-9.2,0.9-11.2-0.6c-1.2-1.2-1.8-2.6-2-4.3c-0.2-1.8-0.2-3.4,0.2-4.8
		v-2.2c-0.2-0.3-0.5-0.3-0.9,0c-4.2,4-9.2,10-15.1,18.3c-5.9,8.2-10.6,15.2-14,21.1C349.5,328,347.7,329.1,345.4,329.1z"/>
	<path class="st0" d="M460.3,201.9c1.7,0.5,3.1,1.2,4.2,2.6c0.9,1.4,0.9,2.8-0.2,4.3c-7.1,9.2-15.6,22.6-25.4,40.2
		c-9.9,17.6-18.8,35.3-26.5,53c-7.9,17.7-12.2,31.4-13.1,41.1c-0.3,1.2-1.4,2.2-3.5,2.6c-2,0.3-4,0.3-6-0.2c-2-0.6-2.8-1.5-2.6-3.1
		c3.5-15.4,10-32.8,19.1-52.5c9.1-19.7,18.3-37.6,27.7-54.1c9.5-16.3,16.6-27.1,21.4-32.5C456.9,202.1,458.4,201.6,460.3,201.9z"/>
	<path class="st0" d="M422.5,312.5c0.5-4.8,2.3-9.1,5.2-13.4c6.8-10,15.2-18.8,25.1-26c8.8-6,15.2-8,19.4-6.5
		c4.2,1.7,5.2,4.9,3.4,9.7c-2.5,4.6-6.2,8.3-11.2,11.2c-5.1,3.1-10,5.5-15.1,7.5c-2.3,0.9-4.5,2-6.5,2.8c-1.2,0.8-2.6,1.8-3.8,3.2
		c-1.4,1.5-2.6,3.1-3.5,4.8c-1.1,1.5-1.5,2.9-1.7,4.2c-0.2,1.1,0.5,1.5,1.8,1.5c7.9-1.1,19.1-5.1,34-12c14.8-6.9,26.8-13.6,35.9-20
		c2.2-1.1,4-1.1,5.5-0.2c1.5,0.8,2.3,2.3,2.3,4.2c-0.2,2-1.7,4-4.6,6.2c-5.4,3.7-13.4,8.2-23.9,13.7c-10.3,5.4-20.8,10-31.4,14
		c-10.5,3.8-18.6,5.2-24.5,4.3C424.1,320.2,421.9,317.1,422.5,312.5z"/>
	<path class="st0" d="M544.9,295.1c2.5-4.3,4.3-8.2,5.4-11.2c1.4-4.5,1.1-6.5-0.8-5.9c-4.3,1.2-9.7,4.8-16.2,10.5
		c-6.6,5.7-12.6,11.6-18,17.7l-8.8,8.3c-2.3,1.8-4.8,2.5-7.4,1.8c-2.8-0.8-4.8-2-6.3-4c-1.4-2-1.7-4.5-0.6-7.4
		c1.5-3.5,4.2-8.6,8-15.2c3.8-6.6,8.2-12.6,12.9-18.2c1.4-1.2,2.8-1.5,4.5-1.1c1.7,0.6,3.1,1.5,4,2.9c0.8,1.4,0.8,2.8-0.3,4.2
		c-1.8,2-3.8,4.5-6,7.4c-2.3,2.9-4.5,6-6.5,8.9c-2.8,4.5-4,6.8-3.5,6.6c0.6-0.2,2.3-1.7,5.4-4.6l0.9-0.9c4-3.8,8.8-8.2,14.5-12.9
		c5.7-4.8,11.1-8.8,16.2-12c6-3.4,11.1-3.8,14.9-1.4c3.9,2.3,5.4,6.5,4.9,12.2c-0.6,4-2.8,9.7-6.9,17.1c4-2.9,9.9-6.2,17.6-9.5
		c7.9-3.4,14.3-5.4,19.7-6c1.5,0,2.5,0.6,3.1,2c0.6,1.4,0.6,2.8,0.2,4.2c-0.5,1.5-1.5,2.5-3.1,2.6c-4.5,0.8-10.6,3.2-18.3,7.2
		c-7.7,4.2-14.9,8.6-21.7,13.2c-6.8,4.8-11.1,8.6-13.1,11.2c-2.9,4.8-7.5,12-13.9,21.6c-6.5,9.5-12.5,17.9-18.2,24.8
		c-2.5,2.8-5.4,4-8.9,3.7c-3.4-0.3-6-1.7-7.9-4.2c-1.7-2.5-1.4-5.5,0.9-9.4c11.4-15.6,21.3-27.3,29.7-35.3
		c5.1-5.1,10.5-11.1,16-17.6C540,303.2,542.5,299.5,544.9,295.1z"/>
	<path class="st0" d="M601.1,293.8c-1.2-1.5-1.1-3.2,0.3-5.1c1.4-1.7,3.4-2.8,6-3.1c4.5-0.3,9.2-0.6,14.2-0.8l6.3-0.5
		c4.3,0.2,7.7,0.3,10.3,0.8l4.6,0.5c3.2,0.3,5.2,1.4,5.9,3.1c0.6,1.5,0.3,3.2-0.9,4.8s-3.1,2.5-5.4,2.6c-3.2,0-6-0.2-8.2-0.5
		l-8.5-0.5c-3.4,0-8.5,0.2-15.4,0.6C605.5,296.1,602.2,295.5,601.1,293.8z"/>
	<path class="st0" d="M814.3,270.9l-0.5,0.3c-15.6,15.2-35.3,29.3-59.1,42.2c-23.9,12.9-46.4,22.5-67.4,28.8
		c-1.5,0.5-2.6,1.4-3.4,2.6c-0.8,1.4-1.4,2.9-2,4.9c-0.5,1.8-1.2,3.8-2.3,6c-1.2,2-2.8,3.2-4.6,3.5c-1.8,0.2-3.4-0.2-4.8-1.4
		c-1.2-1.1-1.7-2.6-1.2-4.8l2.5-7.4c-0.3,0-0.6,0-1.1,0.2c-8.5,1.4-16.5,0.8-24.2-1.7c-7.5-3.5-10-9.4-7.4-17.4
		c2.8-6.6,7.9-12.9,15.6-18.8c7.7-5.9,15.9-11.1,24.9-15.7c8.9-4.6,16.6-8.2,23.4-10.8c2-0.9,3.5-2.2,4.6-4
		c10.8-18.9,22.8-37.1,36.2-54.8c0.2-0.2,0.3-0.5,0.5-0.8c0.2-0.2,0.2-0.5,0.5-0.6c-6.2,0.9-14,2.5-23.4,4.8
		c-9.4,2.3-18.6,5.2-27.3,8.9c-8.8,3.7-15.2,8.2-19.4,13.2c-1.5,2-1.8,3.4-0.9,4.3c0.9,0.8,2.5,1.5,4.6,2.2c0.6,0.2,1.4,0.5,2.2,0.6
		c2.2,0.9,3.2,2.2,3.5,3.8c0.2,1.7-0.3,3.2-1.5,4.5c-1.1,1.4-2.6,2-4.6,1.8c-8.6-1.1-13.9-4.3-15.9-9.5c-1.8-5.4,0.8-11.5,8.2-18.5
		c10.2-8.2,23.4-14.6,39.4-19.1c16.2-4.6,30.8-7.5,43.7-8.8c1.4-0.3,2.6-0.8,3.5-1.5c0.9-0.6,2-1.1,3.1-1.2c1.2-0.2,2.8,0.2,4.9,1.2
		c1.1,0.5,4,0.8,8.6,0.6c6-0.2,13.2,0.3,21.7,1.4c8.5,1.1,16.5,4,23.9,8.9c8,5.9,11.9,12.5,11.5,19.9c-0.5,7.4-3.1,14.9-8.2,22.8
		c2,3.1,2.2,5.5,0.6,7.4c-1.5,1.8-4.3,2.5-8.3,1.7C814.4,270.9,814.4,270.9,814.3,270.9z M674.4,334.5c1.4-0.2,2.5-0.9,3.1-2.3
		c2.3-4.2,4.6-8.6,6.9-13.1c4.5-8.2,8.5-16,12.3-23.7c-6.8,2.6-14.2,6.5-22.2,11.4c-8.2,5.1-14.8,10.2-19.9,15.2
		c-5.1,5.1-6.6,8.9-4.3,11.5C652.6,336.3,660.6,336.6,674.4,334.5z M727.4,315.7c15.1-7.5,29.9-15.7,43.9-24.6
		c14.2-8.9,24.2-16.5,30-22.8c-29.3,2.6-57.7,8.9-85.6,19.2c-1.4,0.3-2.5,1.1-3.1,2.3l-4,7.1c-2.2,3.9-4.5,8.2-7.1,12.9
		c-2.6,4.8-4.8,8.9-6.8,12.8c-2,3.8-3.2,6.3-3.7,7.4C700.2,328,712.2,323.3,727.4,315.7z M736.7,270c3.9-1.2,7.9-2.3,12-3.4
		c4.2-1.1,9.4-2.3,15.6-3.5c15.4-3.9,31.1-5.5,47-5.1c4.5-5.2,6.9-10.8,7.4-16.3c0.5-5.4-2.2-10.3-7.7-14.3
		c-4.9-3.1-11.2-5.2-18.8-6.5c-7.4-1.2-14.3-1.8-20.6-1.8s-10.2,0.3-11.5,0.9c-1.8,1.2-5.7,5.9-11.2,13.6
		c-5.5,7.9-11.1,15.9-16.5,24c-5.4,8.3-8.8,13.9-10.2,16.6C727.7,272.6,732.5,271.2,736.7,270z"/>
	<path class="st0" d="M883.7,322.3c-3.9,1.7-7.4,2-10.6,0.9c-3.1-1.4-5.7-3.4-8-6c-2.3-2.6-4.2-4.9-5.5-6.9h-0.2c0,0-0.2,0-0.2,0.2
		h-0.2c-5.1,4-10.8,7.2-17.2,9.9c-6.5,2.6-12,3.4-16.8,2.3c-4.9-1.7-7.5-4.6-7.9-8.8c-0.3-4.3,0.5-8.6,2.5-12.9
		c2.6-5.4,6.8-11.4,12.8-18c6.2-6.8,12.3-11.7,18.5-14.9c5.1-2.2,8.9-2.6,11.4-0.9c2.5,1.5,3.2,4.2,2.2,7.7
		c-1.8,4.6-5.1,8.6-9.7,11.9c-4.6,3.4-9.2,6.3-14,8.8c-2.3,1.2-4.3,2.3-6,3.4c-1.4,0.9-2.6,2.2-3.7,4c-1.1,1.8-2,3.7-2.5,5.5
		c-0.5,1.8-0.3,3.2,0.3,4c2.5,2.3,7.4,1.2,14.6-3.2c7.2-4.5,14.5-9.7,21.7-15.9c7.2-6.2,12.2-10.6,14.9-13.4c0.5-2,1.4-4.3,2.8-6.9
		c1.5-2.5,3.1-4.6,4.9-6.3c5.2-4.5,9.9-6.6,13.7-6.3c4,0.2,5.7,2,5.1,5.2c-0.6,1.8-2.2,4-4.6,6.8c-2.5,2.6-4.8,4.9-7.1,6.9
		c-1.5,1.4-2.5,2.3-2.8,2.6c0.5,5.5,0.6,11.1,0.6,16.8c0,5.7-0.5,10.6-1.4,14.8C890.2,317.6,887.6,320.5,883.7,322.3z M874.5,311.1
		c1.7,2.2,3.2,3.1,4.2,2.8c1.1-0.5,1.8-2.2,2.3-4.8c0.3-2.6,0.6-5.5,0.6-8.8c-0.2-3.1-0.2-5.9-0.3-8.2c-4,3.7-7.9,7.2-11.5,10.5
		h-0.2c-0.2,0.2-0.3,0.3-0.5,0.5C870.8,306.2,872.6,308.8,874.5,311.1z"/>
	<path class="st0" d="M930.2,274.1c2,0.5,3.5,1.5,4.8,3.1c1.2,1.7,1.2,3.4,0,5.4c-3.4,4.3-6.5,8.8-9.4,13.4
		c-2.9,4.5-4.8,8.3-5.2,11.4c-0.6,3.1,0.9,4.5,4.6,4.2c5.5-0.8,11.9-3.1,18.6-6.9s12.9-7.9,18.6-12c5.7-4.2,9.5-7.2,11.7-8.9
		c0.6-0.5,0.9-0.8,1.1-0.9c1.2-0.8,2.5-1.1,3.5-0.6c1.2,0.5,1.8,1.2,2.2,2.5s-0.3,2.5-1.7,4c-2.5,2.3-6.9,6.2-13.7,11.5
		s-14.2,10.3-22.3,14.9c-8.2,4.6-15.4,6.9-21.9,7.1c-6.5,0.2-10.5-3.9-12.2-12c-0.2-5.9,1.8-12.3,6-19.2c4.2-6.9,7.5-12.2,10.3-15.6
		C926.5,274,928.1,273.7,930.2,274.1z M937.9,257.3c1.5-2.9,3.4-5.2,5.2-6.6c0.9-0.6,2.5-1.1,4.5-1.1c2-0.2,3.8,0.2,5.4,0.8
		c1.7,0.6,2.3,1.7,1.8,3.4c-0.8,1.8-2.5,4.3-5.1,7.1c-2.8,2.9-5.5,5.4-8.5,7.4c-2.9,2.2-5.1,2.9-6.5,2.6c-0.9-0.5-1.1-2.2-0.5-4.9
		C935.1,263.3,936.2,260.4,937.9,257.3z"/>
	<path class="st0" d="M933.8,401c-2.5-1.8-4.2-4.5-5.1-8.2c-1.1-3.5-0.5-7.1,1.7-10.3c7.5-9.2,14.9-17.4,22.3-24.5
		c6.8-6.6,12.2-12.6,16-17.9c0.9-1.5,2-3.1,2.9-4.5c5.5-8.2,10.6-16,15.1-23.9c4.3-7.9,7.9-16.6,10.5-26.3
		c-4.9,3.5-11.1,8.9-18.5,15.9c-5.2,4.9-10.2,9.4-14.9,13.4c-4.8,4-8.6,6.5-11.4,7.4c-4,0.9-6.3-0.3-6.9-3.5
		c-0.5-3.2,0.6-7.2,3.4-12c2.5-4.3,6.3-9.4,11.4-15.4c4.9-6,10-11.2,15.4-16c5.2-4.6,9.5-7.1,12.8-7.4c1.2,0,2.3,0.5,3.2,1.2
		c0.9,0.9,1.7,1.8,2.5,2.8c0.9,1.2,1.8,2.2,2.6,2.6c0.2,0,0.2-0.2,0.3-0.2l2.8-1.8c1.2-0.9,2.6-1.4,4.2-1.5c1.4-0.2,2.6,0.5,3.5,1.8
		c1.8,3.5,1.5,9.4-1.1,17.4c-2.6,8-5.7,15.7-9.4,23.1c-3.7,7.5-6.3,12.3-7.7,14.5c4.2-3.4,10-8.5,17.9-15.6
		c10.9-10.3,24.2-21.7,39.6-34.2c1.7-1.2,3.1-1.2,4.3,0c1.2,1.2,1.8,2.9,1.8,4.9c0.2,2.2-0.8,4-2.6,5.5
		c-27.9,22-51.3,42.5-70.2,61.6l-8.6,8.3c-3.1,3.1-7.1,8.8-12.3,16.8c-5.9,9.2-12,17.7-18.3,25.4C938.7,402.7,936.2,402.9,933.8,401
		z"/>
	<path class="st0" d="M1054.6,272.9c1.8,0.5,3.4,1.5,4.6,3.1c1.1,1.7,1.2,3.2,0.3,4.8c-1.1,1.5-2.2,3.2-3.2,4.6
		c-1.2,1.8-2.3,3.4-3.2,4.6c-0.8,1.4-1.2,2.3-1.2,2.9c1.5-1.5,4-3.8,7.7-7.1c3.5-3.2,7.2-6.5,10.9-9.4c3.7-3.1,6.5-5.1,8.2-5.9
		c1.4-0.5,2.9-0.2,4.5,0.8c1.7,0.9,2.9,2.2,4,3.8c1.1,1.5,1.5,3.2,1.2,4.8c-0.3,1.2-0.9,2.8-1.8,4.8l-3.4,6.5
		c-1.7,3.2-3.1,6-4.2,8.5c-1.2,2.5-1.4,4-0.8,4.3c2.3,0.6,5.5-0.2,9.9-2.3c4.3-2.2,8.5-4.6,12.5-7.4c4.2-2.8,6.9-4.8,8.6-6
		c0,0,0.2-0.2,0.3-0.2c1.7-1.2,3.2-1.4,4.5-0.8c1.2,0.8,1.8,1.8,2,3.4c0,1.5-0.8,2.9-2.5,4.3c-7.1,5.5-14.8,10.5-23.4,15.1
		c-8.6,4.5-15.6,5.9-20.6,3.7c-3.1-2-3.8-5.2-2.6-9.9c1.2-4.6,2.8-8.9,4.8-12.9c0.8-1.7,1.4-3.1,1.8-4.3c0.2-1.1-0.9-0.5-3.5,1.7
		c-2.5,2.2-5.5,5.2-9.2,8.9l-10.8,10.9c-4,4.2-6.8,7.1-8.3,8.6c-1.4,0.9-2.9,1.2-4.8,0.6c-1.7-0.6-3.2-1.7-4.3-3.2
		c-1.1-1.7-1.2-3.5-0.5-5.7c4.8-10.6,10.8-21.9,18-34C1051.2,273.1,1052.8,272.4,1054.6,272.9z"/>
</g>
<g>
	<path class="st0" d="M1163.1,306.6c-1.2-1.8-2.4-4.9-3.5-9.2c-1.6-10-2.1-16.5-1.5-19.4c1.3-5.9,6-12.4,14.1-19.5
		c0.3-0.2,2.3-1.9,5.9-5c2.2-2,4.6-3,7.2-3.1c-0.1,0,1.7,0.3,5.4,1c2.1,0.5,3.3,1.3,3.7,2.6c5.5,3.6,8.5,9.4,9,17.6
		c1.7,1,2.1,2.3,1.2,4.2c-0.4,0.9-0.3,2.2,0.2,3.8c0.5,1.6,0.7,2.7,0.6,3.3c-0.2,1-1,1.7-2.2,2.1c-0.4,1.6,0,3.6,1.1,5.9
		c-0.1,1.7-1.3,2.8-3.6,3.4c-2.3,0.6-3.6,1.5-3.8,2.7c-0.2,0.7-0.1,1.6,0.1,2.6c-1.3,1.7-2.4,3.4-3.5,5c-1.3,2.1-3,3.3-4.9,3.4
		c-1,1.7-2.5,3-4.7,4c-2.2,1-4.3,2-6.4,3C1172.7,314.4,1167.9,311.6,1163.1,306.6z M1176,348.4c2.9-11.7,8.8-20.2,17.6-25.4
		c8.8-2.6,14.6-5.8,17.3-9.5c3.6-1.1,7.3-3.5,11.3-7.2c4.7-4.3,8.1-6.9,10.2-7.9c2.9-2.8,9-3.3,18.3-1.5c0.5,0.5,2.3,1.7,5.5,3.6
		c2.4,1.3,3.6,2.8,3.5,4.7c1.1,0.8,1.9,2.7,2.3,5.7c0.4,3,1.3,4.9,2.7,5.8c0.2,1.5,1.4,3.5,3.4,6c-0.8,1.6-0.4,2.6,1.2,3.1
		c3,11.5,9.9,19.2,20.5,23.2c1.8,2.4,3.6,4.9,5.4,7.5c1.9,2.6,2.5,5.5,1.7,8.6l1.2,0.3c-0.4-0.2-0.9-0.3-1.7-0.2
		c-0.1,0.4-0.1,1,0,1.7l1.2,0.3c-0.4-0.2-1-0.2-1.7,0l1.6,0.6c-1.2,0.2-2,1.2-2.4,3.1l-1.1,4.9c-0.7,1.1-2.3,2-4.9,2.5
		c-2.6,0.5-4.2,1.3-4.9,2.5c-8.7-1-13.6-1.5-14.7-1.8c-5.4-1.2-9.4-3.4-12.1-6.6c-5.3-0.6-13.4-1.8-24.1-3.5c-1.9-1.7-4.2-2.9-7-3.5
		c-4.4-1-9.5-0.5-15.2,1.5c-3.7,1.2-7.7,1.3-12,0.4c-7.3-1.6-13.7-5.6-19.4-11.9c-1-0.7-1.9-1.7-2.5-3.2
		C1176.4,349.8,1176,348.6,1176,348.4z M1216.9,265.5c-9.5-14.2-12.1-28.7-7.8-43.3l0.4,0.1c0.3-1.4,1.5-3.4,3.7-6
		c2.2-2.6,3.5-4.8,4.1-6.5c1.6-1.4,4.1-3.3,7.4-5.9c-0.1,0.3,0,0.6,0.2,0.9c5.9-3,10.8-4.1,14.8-3.2c1.2,0.3,2.4,0.7,3.4,1.2
		c1,0.5,2.4,1.9,4,4.1c0.2,1.1,0.9,2.6,2.2,4.7c1.3,2.1,1.8,4,1.7,5.7c1.1,3.6,0.8,8.6-0.8,15.2c-2.6,10.8-3.8,15.9-3.6,15.2
		c-1.1,1.2-2.4,4.1-3.9,8.6c-1.2,4.1-2.6,6.3-4.3,6.6l-0.2,0.8c-0.8-0.3-1.3-0.2-1.6,0.3l-0.4,1.9c-0.2,0.8-0.6,1.2-1.1,1.1
		c-2,1.4-5,1.8-8.9,1C1227.6,268.2,1224.5,267.4,1216.9,265.5z M1272.9,275.9c-1-2.4-2.2-6.1-3.6-11c-2.7-6.4-3.1-14.2-1-23.4
		c0.6-2.9,2-7.5,4-13.8c8.4-10,18.5-14.5,30.1-13.6c2.5,0.4,4.6,2.1,6.4,4.9c1.7,2.8,3.5,4.6,5.2,5.3c-0.1,1.7,0.5,3.9,1.8,6.5
		c0.8,3.9,0.5,9.4-1.1,16.2c-0.4,1.9-2.1,7.7-5,17.3c-0.1,0-0.4,0-0.9,0.2l0.5,1.4c-1.4,1.6-2.3,3.3-2.7,5.2c-1.4,0.4-2.7,1.7-4,3.9
		c-1.3,2.2-2.5,3.5-3.8,3.9c-6.8,2.8-12.6,3.7-17.2,2.6C1278,280.8,1275.1,278.9,1272.9,275.9z M1284.9,323.6
		c-0.3-4.3,0-8.8,1.1-13.6c1.2-5.4,2.9-9.2,5.2-11.6c1.3-3,3.4-6,6.3-9c2.6-2.4,5.1-4.9,7.7-7.3c9.9-6.3,17.6-9.7,23.1-10.4
		c1.6,0.4,3.4,1.5,5.2,3.5c1.8,2,3.7,3.1,5.7,3.2c1.6,0.5,2.1,2.1,1.4,4.6c-0.7,2.6-0.5,4.1,0.4,4.6c-0.3,2.7-0.1,6.4,0.7,11.2
		c0,0.1-0.3,0.3-0.7,0.5c-0.4,0.2-0.6,0.4-0.6,0.7c0,0.3-0.7,1.9-2.1,4.9c-1,2.5-2.1,3.9-3.3,4.2c-0.4,0.5-0.9,2.3-1.5,5.5
		c-0.5,2.3-1.5,3.5-2.9,3.4c-0.5,0.5-1.4,2-2.5,4.6c-0.9,2-2,2.9-3.5,2.9c-2.1,1.6-5,3.8-8.8,6.7c-1.3,0.1-4.2,1.1-8.7,3
		c-3.5,1.5-6.4,2-8.8,1.5c-1.9-0.4-3.7-1.5-5.3-3.1L1284.9,323.6z"/>
</g>
</svg>
