<?xml version="1.0" encoding="utf-8"?>
<!-- Generator: Adobe Illustrator 26.5.2, SVG Export Plug-In . SVG Version: 6.00 Build 0)  -->
<svg version="1.1" id="Ebene_1" xmlns="http://www.w3.org/2000/svg" xmlns:xlink="http://www.w3.org/1999/xlink" x="0px" y="0px"
	 viewBox="0 0 580 580" style="enable-background:new 0 0 580 580;" xml:space="preserve">
<style type="text/css">
	.st0{fill:#575756;}
</style>
<g>
	<g>
		<g>
			<path class="st0" d="M296,302.4c-4.4,0-7.9-3.6-7.9-7.9V104.9c0-4.4,3.6-7.9,7.9-7.9c4.4,0,7.9,3.6,7.9,7.9v189.6
				C303.9,298.9,300.4,302.4,296,302.4z"/>
			<path class="st0" d="M296,300.3c-3.2,0-5.8-2.6-5.8-5.8V104.9c0-3.2,2.6-5.8,5.8-5.8c3.2,0,5.8,2.6,5.8,5.8v189.6
				C301.8,297.7,299.2,300.3,296,300.3z"/>
		</g>
		<g>
			<path class="st0" d="M296.4,216.3c-2.1,0-4.1-0.8-5.6-2.3c-1.5-1.5-2.3-3.5-2.3-5.6c0-2.1,0.8-4.1,2.3-5.6l57.3-57.3
				c1.5-1.5,3.5-2.3,5.6-2.3c2.1,0,4.1,0.8,5.6,2.3c1.5,1.5,2.3,3.5,2.3,5.6s-0.8,4.1-2.3,5.6L302.1,214
				C300.6,215.5,298.6,216.3,296.4,216.3z"/>
			<path class="st0" d="M296.4,214.2c-1.5,0-3-0.6-4.1-1.7c-2.3-2.3-2.3-6,0-8.2l57.3-57.3c2.3-2.3,6-2.3,8.2,0c2.3,2.3,2.3,6,0,8.2
				l-57.3,57.3C299.4,213.6,297.9,214.2,296.4,214.2z"/>
		</g>
		<g>
			<path class="st0" d="M296.4,216.3c-2.1,0-4.1-0.8-5.6-2.3l-57.3-57.3c-1.5-1.5-2.3-3.5-2.3-5.6s0.8-4.1,2.3-5.6
				c1.5-1.5,3.5-2.3,5.6-2.3c2.1,0,4.1,0.8,5.6,2.3l57.3,57.3c1.5,1.5,2.3,3.5,2.3,5.6c0,2.1-0.8,4.1-2.3,5.6
				C300.6,215.5,298.6,216.3,296.4,216.3z"/>
			<path class="st0" d="M296.4,214.2c-1.5,0-3-0.6-4.1-1.7l-57.3-57.3c-2.3-2.3-2.3-6,0-8.2c2.3-2.3,6-2.3,8.2,0l57.3,57.3
				c2.3,2.3,2.3,6,0,8.2C299.4,213.6,297.9,214.2,296.4,214.2z"/>
		</g>
		<g>
			<path class="st0" d="M296,492c-4.4,0-7.9-3.6-7.9-7.9V294.5c0-4.4,3.6-7.9,7.9-7.9c4.4,0,7.9,3.6,7.9,7.9v189.6
				C303.9,488.4,300.4,492,296,492z"/>
			<path class="st0" d="M296,489.9c-3.2,0-5.8-2.6-5.8-5.8V294.5c0-3.2,2.6-5.8,5.8-5.8c3.2,0,5.8,2.6,5.8,5.8v189.6
				C301.8,487.3,299.2,489.9,296,489.9z"/>
		</g>
		<g>
			<path class="st0" d="M353.7,445.9c-2.1,0-4.1-0.8-5.6-2.3l-57.3-57.3c-1.5-1.5-2.3-3.5-2.3-5.6s0.8-4.1,2.3-5.6
				c1.5-1.5,3.5-2.3,5.6-2.3s4.1,0.8,5.6,2.3l57.3,57.3c1.5,1.5,2.3,3.5,2.3,5.6c0,2.1-0.8,4.1-2.3,5.6
				C357.8,445,355.8,445.9,353.7,445.9z"/>
			<path class="st0" d="M353.7,443.7c-1.5,0-3-0.6-4.1-1.7l-57.3-57.3c-2.3-2.3-2.3-6,0-8.2c2.3-2.3,6-2.3,8.2,0l57.3,57.3
				c2.3,2.3,2.3,6,0,8.2C356.7,443.2,355.2,443.7,353.7,443.7z"/>
		</g>
		<g>
			<path class="st0" d="M239.2,445.9c-2.1,0-4.1-0.8-5.6-2.3c-1.5-1.5-2.3-3.5-2.3-5.6c0-2.1,0.8-4.1,2.3-5.6l57.3-57.3
				c1.5-1.5,3.5-2.3,5.6-2.3s4.1,0.8,5.6,2.3c1.5,1.5,2.3,3.5,2.3,5.6s-0.8,4.1-2.3,5.6l-57.3,57.3
				C243.3,445,241.3,445.9,239.2,445.9z"/>
			<path class="st0" d="M239.2,443.7c-1.5,0-3-0.6-4.1-1.7c-2.3-2.3-2.3-6,0-8.2l57.3-57.3c2.3-2.3,6-2.3,8.2,0c2.3,2.3,2.3,6,0,8.2
				L243.3,442C242.2,443.2,240.7,443.7,239.2,443.7z"/>
		</g>
	</g>
	<g>
		<g>
			<path class="st0" d="M296,302.4c-1.4,0-2.7-0.4-3.9-1l-164.8-93.6c-3.8-2.2-5.2-7-3-10.8c1.4-2.5,4.1-4,6.9-4
				c1.4,0,2.7,0.4,3.9,1l164.8,93.6c3.8,2.2,5.2,7,3,10.8C301.5,300.9,298.9,302.4,296,302.4z"/>
			<path class="st0" d="M296,300.3c-1,0-2-0.2-2.9-0.8L128.3,206c-2.8-1.6-3.8-5.1-2.2-7.9c1.6-2.8,5.1-3.8,7.9-2.2l164.8,93.6
				c2.8,1.6,3.8,5.1,2.2,7.9C300,299.3,298,300.3,296,300.3z"/>
		</g>
		<g>
			<path class="st0" d="M221.3,259.5c-3.6,0-6.7-2.4-7.7-5.8l-21.5-78.1c-0.6-2-0.3-4.2,0.7-6c1-1.8,2.8-3.2,4.8-3.7
				c0.7-0.2,1.4-0.3,2.1-0.3c3.6,0,6.7,2.4,7.7,5.8l21.5,78.1c0.6,2,0.3,4.2-0.7,6c-1,1.8-2.8,3.2-4.8,3.7
				C222.7,259.4,222,259.5,221.3,259.5z"/>
			<path class="st0" d="M221.3,257.4c-2.6,0-4.9-1.7-5.6-4.3l-21.5-78.1c-0.9-3.1,1-6.3,4.1-7.2c3.1-0.9,6.3,1,7.2,4.1l21.5,78.1
				c0.9,3.1-1,6.3-4.1,7.2C222.3,257.4,221.8,257.4,221.3,257.4z"/>
		</g>
		<g>
			<path class="st0" d="M143.2,281.1c-3.6,0-6.7-2.4-7.7-5.8c-0.6-2-0.3-4.2,0.7-6c1-1.8,2.8-3.2,4.8-3.7l78.1-21.5
				c0.7-0.2,1.4-0.3,2.1-0.3c3.6,0,6.7,2.4,7.7,5.8c0.6,2,0.3,4.2-0.7,6c-1,1.8-2.8,3.2-4.8,3.7l-78.1,21.5
				C144.6,281,143.9,281.1,143.2,281.1z"/>
			<path class="st0" d="M143.2,279c-2.6,0-4.9-1.7-5.6-4.3c-0.9-3.1,1-6.3,4.1-7.2l78.1-21.5c3.1-0.9,6.3,1,7.2,4.1
				c0.9,3.1-1,6.3-4.1,7.2l-78.1,21.5C144.3,278.9,143.7,279,143.2,279z"/>
		</g>
		<g>
			<path class="st0" d="M460.8,396c-1.4,0-2.7-0.4-3.9-1l-164.8-93.6c-3.8-2.2-5.2-7-3-10.8c1.4-2.5,4.1-4,6.9-4
				c1.4,0,2.7,0.4,3.9,1l164.8,93.6c3.8,2.2,5.2,7,3,10.8C466.3,394.5,463.7,396,460.8,396z"/>
			<path class="st0" d="M460.8,393.9c-1,0-2-0.2-2.9-0.8l-164.8-93.6c-2.8-1.6-3.8-5.1-2.2-7.9c1.6-2.8,5.1-3.8,7.9-2.2L463.7,383
				c2.8,1.6,3.8,5.1,2.2,7.9C464.8,392.8,462.9,393.9,460.8,393.9z"/>
		</g>
		<g>
			<path class="st0" d="M371.1,344.6c-3.6,0-6.7-2.4-7.7-5.8c-0.6-2-0.3-4.2,0.7-6c1-1.8,2.8-3.2,4.8-3.7l78.1-21.5
				c0.7-0.2,1.4-0.3,2.1-0.3c3.6,0,6.7,2.4,7.7,5.8c0.6,2,0.3,4.2-0.7,6c-1,1.8-2.8,3.2-4.8,3.7l-78.1,21.5
				C372.6,344.5,371.8,344.6,371.1,344.6z"/>
			<path class="st0" d="M371.1,342.5c-2.6,0-4.9-1.7-5.6-4.3c-0.9-3.1,1-6.3,4.1-7.2l78.1-21.5c3.1-0.9,6.3,1,7.2,4.1
				c0.9,3.1-1,6.3-4.1,7.2l-78.1,21.5C372.2,342.4,371.6,342.5,371.1,342.5z"/>
		</g>
		<g>
			<path class="st0" d="M392.7,422.7c-3.6,0-6.7-2.4-7.7-5.8l-21.5-78.1c-0.6-2-0.3-4.2,0.7-6c1-1.8,2.8-3.2,4.8-3.7
				c0.7-0.2,1.4-0.3,2.1-0.3c3.6,0,6.7,2.4,7.7,5.8l21.5,78.1c0.6,2,0.3,4.2-0.7,6c-1,1.8-2.8,3.2-4.8,3.7
				C394.1,422.6,393.4,422.7,392.7,422.7z"/>
			<path class="st0" d="M392.7,420.5c-2.6,0-4.9-1.7-5.6-4.3l-21.5-78.1c-0.9-3.1,1-6.3,4.1-7.2c3.1-0.9,6.3,1,7.2,4.1l21.5,78.1
				c0.9,3.1-1,6.3-4.1,7.2C393.7,420.5,393.2,420.5,392.7,420.5z"/>
		</g>
	</g>
	<g>
		<g>
			<path class="st0" d="M132.5,398.3c-2.8,0-5.4-1.5-6.9-3.9c-1.1-1.8-1.4-4-0.8-6c0.5-2.1,1.8-3.8,3.7-4.9L292,287.6
				c1.2-0.7,2.6-1.1,4-1.1c2.8,0,5.4,1.5,6.9,3.9c1.1,1.8,1.4,4,0.8,6c-0.5,2.1-1.8,3.8-3.7,4.9l-163.5,95.8
				C135.3,397.9,133.9,398.3,132.5,398.3z"/>
			<path class="st0" d="M132.5,396.2c-2,0-3.9-1-5-2.9c-1.6-2.8-0.7-6.3,2.1-8l163.5-95.8c2.8-1.6,6.3-0.7,8,2.1
				c1.6,2.8,0.7,6.3-2.1,8l-163.5,95.8C134.5,395.9,133.5,396.2,132.5,396.2z"/>
		</g>
		<g>
			<path class="st0" d="M221.5,345.6c-0.7,0-1.4-0.1-2-0.3l-78.4-20.5c-2.1-0.5-3.8-1.8-4.9-3.7c-1.1-1.8-1.4-4-0.8-6
				c0.9-3.5,4.1-5.9,7.7-5.9c0.7,0,1.4,0.1,2,0.3l78.4,20.5c2.1,0.5,3.8,1.8,4.9,3.7c1.1,1.8,1.4,4,0.8,6
				C228.2,343.2,225.1,345.6,221.5,345.6z"/>
			<path class="st0" d="M221.5,343.5c-0.5,0-1-0.1-1.5-0.2l-78.4-20.5c-3.1-0.8-5-4-4.2-7.1c0.8-3.1,4-5,7.1-4.2l78.4,20.5
				c3.1,0.8,5,4,4.2,7.1C226.4,341.8,224,343.5,221.5,343.5z"/>
		</g>
		<g>
			<path class="st0" d="M201,424c-0.7,0-1.4-0.1-2-0.3c-2.1-0.5-3.8-1.8-4.8-3.7c-1.1-1.8-1.4-4-0.8-6l20.5-78.4
				c0.9-3.5,4.1-5.9,7.7-5.9c0.7,0,1.4,0.1,2,0.3c2.1,0.5,3.8,1.8,4.8,3.7c1.1,1.8,1.4,4,0.8,6L208.7,418
				C207.8,421.5,204.6,424,201,424z"/>
			<path class="st0" d="M201,421.9c-0.5,0-1-0.1-1.5-0.2c-3.1-0.8-5-4-4.2-7.1l20.5-78.4c0.8-3.1,4-5,7.1-4.2c3.1,0.8,5,4,4.2,7.1
				l-20.5,78.4C205.9,420.1,203.6,421.9,201,421.9z"/>
		</g>
		<g>
			<path class="st0" d="M296,302.4c-2.8,0-5.4-1.5-6.9-3.9c-1.1-1.8-1.4-4-0.8-6c0.5-2.1,1.8-3.8,3.7-4.9l163.5-95.8
				c1.2-0.7,2.6-1.1,4-1.1c2.8,0,5.4,1.5,6.9,3.9c1.1,1.8,1.4,4,0.8,6s-1.8,3.8-3.7,4.9L300,301.4
				C298.8,302.1,297.4,302.4,296,302.4z"/>
			<path class="st0" d="M296,300.3c-2,0-3.9-1-5-2.9c-1.6-2.8-0.7-6.3,2.1-8l163.5-95.8c2.8-1.6,6.3-0.7,8,2.1
				c1.6,2.8,0.7,6.3-2.1,8l-163.5,95.8C298,300.1,297,300.3,296,300.3z"/>
		</g>
		<g>
			<path class="st0" d="M370.1,258.5c-0.7,0-1.4-0.1-2-0.3c-4.2-1.1-6.8-5.5-5.7-9.7l20.5-78.4c0.9-3.5,4.1-5.9,7.7-5.9
				c0.7,0,1.3,0.1,2,0.3c4.2,1.1,6.8,5.5,5.7,9.7l-20.5,78.4C376.9,256.1,373.7,258.5,370.1,258.5z"/>
			<path class="st0" d="M370.1,256.4c-0.5,0-1-0.1-1.5-0.2c-3.1-0.8-5-4-4.2-7.1l20.5-78.4c0.8-3.1,4-5,7.1-4.2c3.1,0.8,5,4,4.2,7.1
				L375.7,252C375.1,254.7,372.7,256.4,370.1,256.4z"/>
		</g>
		<g>
			<path class="st0" d="M448.5,279c-0.7,0-1.4-0.1-2-0.3l-78.4-20.5c-4.2-1.1-6.8-5.5-5.7-9.7c0.9-3.5,4.1-5.9,7.7-5.9
				c0.7,0,1.4,0.1,2,0.3l78.4,20.5c4.2,1.1,6.8,5.5,5.7,9.7C455.2,276.5,452.1,279,448.5,279z"/>
			<path class="st0" d="M448.5,276.9c-0.5,0-1-0.1-1.5-0.2l-78.4-20.5c-3.1-0.8-5-4-4.2-7.1c0.8-3.1,4-5,7.1-4.2l78.4,20.5
				c3.1,0.8,5,4,4.2,7.1C453.4,275.1,451.1,276.9,448.5,276.9z"/>
		</g>
	</g>
</g>
</svg>
