<?xml version="1.0" encoding="utf-8"?>
<!-- Generator: Adobe Illustrator 26.5.2, SVG Export Plug-In . SVG Version: 6.00 Build 0)  -->
<svg version="1.1" id="Ebene_1" xmlns="http://www.w3.org/2000/svg" xmlns:xlink="http://www.w3.org/1999/xlink" x="0px" y="0px"
	 viewBox="0 0 580 580" style="enable-background:new 0 0 580 580;" xml:space="preserve">
<style type="text/css">
	.st0{fill:#575756;}
</style>
<g>
	<g>
		<path class="st0" d="M345.5,401.2c-4.4,0-7.9-3.6-7.9-8c0-4.4,3.6-8,7.9-8h108.9c25.2,0,45.7-20.6,45.7-45.8
			c0-25.3-20.5-45.8-45.7-45.8H454c-2.4,0-4.7-1.1-6.2-3c-1.5-1.9-2.1-4.3-1.6-6.7c0.2-0.9,0.2-2.4,0.2-3.9
			c0-28.4-23-51.4-51.3-51.4c-10.8,0-21.3,3.5-30.3,10.1c-1.4,1-3,1.5-4.7,1.5c-1.2,0-2.5-0.3-3.6-0.9c-2.7-1.4-4.3-4.1-4.3-7.1
			v-0.6c0-45.6-37-82.7-82.4-82.7c-45.3,0-82.2,37.1-82.2,82.7v1.7c0,2.4-1.1,4.7-3,6.2c-1.4,1.1-3.2,1.8-5,1.8
			c-0.6,0-1.2-0.1-1.7-0.2c-4.6-1-9.5-1.5-14.4-1.5c-40,0-72.6,32.7-72.6,72.8c0,40.2,32.6,72.8,72.6,72.8c4.4,0,7.9,3.6,7.9,8
			c0,4.4-3.6,8-7.9,8c-48.8,0-88.5-39.8-88.5-88.8c0-49,39.7-88.8,88.5-88.8c2.8,0,5.7,0.1,8.5,0.4c3.9-51.2,46.4-91.1,97.8-91.1
			c24.5,0,48,9.1,66.2,25.7c17.3,15.8,28.3,37,31.3,60.1c8.8-4.1,18.2-6.2,27.9-6.2c36.4,0,66.1,29.2,67.1,65.5
			c14.4,1.9,27.7,8.8,37.6,19.7c10.4,11.4,16.1,26.2,16.1,41.6c0,34.1-27.6,61.8-61.6,61.8H345.5z"/>
		<path class="st0" d="M454.4,399.1H345.5c-3.2,0-5.8-2.6-5.8-5.8s2.6-5.8,5.8-5.8h108.9c26.4,0,47.8-21.5,47.8-48
			c0-26.4-21.5-48-47.8-48H454c-1.8,0-3.4-0.8-4.5-2.2c-1.1-1.4-1.5-3.2-1.1-4.9c0.2-1.1,0.2-2.7,0.2-4.3c0-29.5-24-53.6-53.4-53.6
			c-11.3,0-22.2,3.6-31.6,10.5c-1.8,1.3-4.1,1.5-6.1,0.5c-2-1-3.2-3-3.2-5.2v-0.6c0-46.8-37.9-84.8-84.5-84.8
			c-46.5,0-84.3,38-84.3,84.8v1.7c0,1.8-0.8,3.4-2.2,4.6c-1.4,1.1-3.2,1.5-4.9,1.1c-4.8-1.1-9.8-1.6-14.9-1.6
			c-41.2,0-74.7,33.6-74.7,75c0,41.3,33.5,75,74.7,75c3.2,0,5.8,2.6,5.8,5.8s-2.6,5.8-5.8,5.8c-47.6,0-86.4-38.9-86.4-86.7
			c0-47.8,38.8-86.7,86.4-86.7c3.5,0,7,0.2,10.5,0.7c2.7-50.8,44.7-91.3,95.9-91.3c49.8,0,90.9,38.2,95.7,86.9
			c9.2-4.8,19.3-7.3,29.6-7.3c35.9,0,65,29.3,65,65.2c0,0,0,0,0,0c30.1,2.9,53.6,28.4,53.6,59.4
			C513.9,372.3,487.2,399.1,454.4,399.1z"/>
	</g>
	<g>
		<path class="st0" d="M253,462.6c-36,0-65.3-29.4-65.3-65.5c0-47.6,56.5-125.6,58.9-128.9c1.5-2,3.9-3.3,6.3-3.3l0.1,0
			c2.5,0,4.9,1.2,6.4,3.3c2.4,3.3,58.9,82.1,58.9,128.9C318.3,433.2,289,462.6,253,462.6z M253,286.8
			c-13.6,20.2-49.4,76.4-49.4,110.3c0,27.3,22.2,49.6,49.4,49.6c27.3,0,49.4-22.2,49.4-49.6C302.4,363.9,266.6,307.2,253,286.8z"/>
		<path class="st0" d="M253,460.5c-34.8,0-63.2-28.4-63.2-63.4c0-47,56.1-124.4,58.5-127.7c1.1-1.5,2.9-2.4,4.7-2.4
			c1.9,0,3.6,0.9,4.7,2.4c2.4,3.3,58.5,81.6,58.5,127.7C316.2,432,287.9,460.5,253,460.5z M253,283c-13.5,19.8-51.5,78.4-51.5,114
			c0,28.5,23.1,51.7,51.5,51.7c28.4,0,51.6-23.2,51.6-51.7C304.6,362.1,266.5,303,253,283z"/>
	</g>
	<g>
		<path class="st0" d="M253,440.6c-23.4,0-42.4-19.1-42.4-42.5c0-4.4,3.6-8,7.9-8s7.9,3.6,7.9,8c0,14.7,11.9,26.6,26.5,26.6
			c4.4,0,7.9,3.6,7.9,8C260.9,437,257.4,440.6,253,440.6z"/>
		<path class="st0" d="M253,438.5c-22.2,0-40.3-18.1-40.3-40.4c0-3.2,2.6-5.8,5.8-5.8c3.2,0,5.8,2.6,5.8,5.8
			c0,15.8,12.8,28.7,28.6,28.7c3.2,0,5.8,2.6,5.8,5.8S256.2,438.5,253,438.5z"/>
	</g>
</g>
</svg>
