<?xml version="1.0" encoding="utf-8"?>
<!-- Generator: Adobe Illustrator 26.5.2, SVG Export Plug-In . SVG Version: 6.00 Build 0)  -->
<svg version="1.1" id="Ebene_1" xmlns="http://www.w3.org/2000/svg" xmlns:xlink="http://www.w3.org/1999/xlink" x="0px" y="0px"
	 viewBox="0 0 580 580" style="enable-background:new 0 0 580 580;" xml:space="preserve">
<style type="text/css">
	.st0{fill:#575756;}
</style>
<g>
	<g>
		<path class="st0" d="M378.4,401.2c-4.4,0-8-3.6-8-8s3.6-8,8-8h65.5c25.4,0,46-20.6,46-46c0-25.4-20.6-46-46-46h-0.4
			c-2.4,0-4.7-1.1-6.2-3c-1.5-1.9-2.1-4.4-1.6-6.7c0.2-0.9,0.2-2.4,0.2-3.9c0-28.5-23.2-51.6-51.6-51.6c-10.9,0-21.4,3.5-30.5,10.1
			c-1.4,1-3,1.5-4.7,1.5c-1.3,0-2.5-0.3-3.6-0.9c-2.7-1.4-4.4-4.1-4.4-7.1V231c0-45.8-37.2-83-83-83c-45.7,0-82.8,37.2-82.8,83v1.7
			c0,2.4-1.1,4.7-3,6.2c-1.4,1.1-3.2,1.8-5,1.8c-0.6,0-1.2-0.1-1.7-0.2c-4.6-1-9.5-1.6-14.5-1.6c-40.3,0-73.1,32.8-73.1,73.1
			c0,40.3,32.8,73.1,73.1,73.1h46c4.4,0,8,3.6,8,8s-3.6,8-8,8h-46c-49.1,0-89.1-40-89.1-89.1s40-89.1,89.1-89.1
			c2.9,0,5.7,0.1,8.6,0.4C163.4,172,206.2,132,258,132c24.7,0,48.3,9.2,66.6,25.8c17.4,15.9,28.5,37.2,31.5,60.3
			c8.9-4.1,18.3-6.2,28.1-6.2c36.7,0,66.6,29.3,67.6,65.8c14.5,1.9,27.9,8.8,37.8,19.7c10.5,11.5,16.2,26.3,16.2,41.8
			c0,34.2-27.8,62-62,62H378.4z"/>
		<path class="st0" d="M443.9,399.1h-65.5c-3.2,0-5.9-2.6-5.9-5.9s2.6-5.9,5.9-5.9h65.5c26.5,0,48.1-21.6,48.1-48.1
			c0-26.5-21.6-48.1-48.1-48.1h-0.4c-1.8,0-3.5-0.8-4.6-2.2c-1.1-1.4-1.5-3.2-1.2-4.9c0.2-1.1,0.2-2.7,0.2-4.3
			c0-29.6-24.1-53.8-53.8-53.8c-11.3,0-22.3,3.6-31.8,10.5c-1.8,1.3-4.1,1.5-6.1,0.5c-2-1-3.2-3-3.2-5.2V231
			c0-46.9-38.2-85.1-85.1-85.1c-46.8,0-84.9,38.2-84.9,85.1v1.7c0,1.8-0.8,3.5-2.2,4.6c-1.4,1.1-3.2,1.5-4.9,1.2
			c-4.8-1.1-9.8-1.6-15-1.6c-41.5,0-75.3,33.8-75.3,75.3s33.8,75.3,75.3,75.3h46c3.2,0,5.9,2.6,5.9,5.9s-2.6,5.9-5.9,5.9h-46
			c-48,0-87-39-87-87c0-48,39-87,87-87c3.6,0,7.1,0.2,10.5,0.7c2.7-51,45-91.7,96.5-91.7c50.2,0,91.5,38.3,96.4,87.2
			c9.3-4.8,19.4-7.3,29.8-7.3c36.1,0,65.5,29.4,65.5,65.5c0,0,0,0,0,0c30.3,3,54,28.6,54,59.6C503.8,372.2,476.9,399.1,443.9,399.1z
			"/>
	</g>
	<g>
		<path class="st0" d="M246.6,518.8c-1.1,0-2.2-0.2-3.2-0.7c-3.5-1.5-5.4-5.2-4.6-8.9l13.3-67.5h-20.8c-2.5,0-4.9-1.2-6.4-3.2
			c-1.5-2-2-4.7-1.2-7.1L260,311.2c1-3.4,4.1-5.7,7.7-5.7h72c2.8,0,5.5,1.5,6.9,4c1.4,2.4,1.5,5.5,0.1,8l-37.8,67.5H333
			c3,0,5.8,1.7,7.1,4.4c1.4,2.7,1.1,5.9-0.7,8.3l-86.4,117.9C251.6,517.6,249.2,518.8,246.6,518.8L246.6,518.8z M261.8,425.8
			c2.4,0,4.7,1.1,6.2,2.9c1.5,1.9,2.1,4.3,1.7,6.6l-8.2,41.8l55.8-76.2h-22.2c-2.8,0-5.5-1.5-6.9-4c-1.4-2.4-1.5-5.5-0.1-8
			l37.8-67.5h-52.4l-31.5,104.3H261.8z"/>
		<path class="st0" d="M246.6,516.7c-0.8,0-1.6-0.2-2.4-0.5c-2.5-1.1-3.9-3.8-3.4-6.5l13.8-70.1h-23.4c-1.9,0-3.6-0.9-4.7-2.4
			c-1.1-1.5-1.4-3.4-0.9-5.2L262,311.8c0.7-2.5,3-4.2,5.6-4.2h72c2.1,0,4,1.1,5.1,2.9c1.1,1.8,1.1,4,0.1,5.8L305.1,387H333
			c2.2,0,4.2,1.2,5.2,3.2c1,2,0.8,4.3-0.5,6.1l-86.4,117.9C250.2,515.9,248.4,516.7,246.6,516.7z M239.2,427.9h22.6
			c1.8,0,3.4,0.8,4.5,2.1c1.1,1.4,1.6,3.1,1.2,4.9l-10.1,51.2l64-87.3h-26.4c-2.1,0-4-1.1-5.1-2.9c-1.1-1.8-1.1-4-0.1-5.8l39.6-70.7
			H272L239.2,427.9z"/>
	</g>
</g>
</svg>
