<?xml version="1.0" encoding="utf-8"?>
<!-- Generator: Adobe Illustrator 26.5.2, SVG Export Plug-In . SVG Version: 6.00 Build 0)  -->
<svg version="1.1" id="Ebene_1" xmlns="http://www.w3.org/2000/svg" xmlns:xlink="http://www.w3.org/1999/xlink" x="0px" y="0px"
	 viewBox="0 0 580 580" style="enable-background:new 0 0 580 580;" xml:space="preserve">
<style type="text/css">
	.st0{fill:#575756;}
</style>
<g>
	<g>
		<g>
			<path class="st0" d="M310.6,400.8c-4.5,0-8.3-3.7-8.3-8.3s3.7-8.3,8.3-8.3H440c26.2,0,47.5-21.3,47.5-47.5
				c0-26.2-21.3-47.5-47.5-47.5h-0.4c-2.5,0-4.9-1.1-6.4-3.1c-1.6-2-2.2-4.5-1.6-7c0.2-0.9,0.2-2.5,0.2-4
				c0-29.4-23.9-53.3-53.3-53.3c-11.2,0-22.1,3.6-31.5,10.4c-1.4,1-3.1,1.6-4.8,1.6c-1.3,0-2.6-0.3-3.7-0.9
				c-2.8-1.4-4.5-4.2-4.5-7.3v-0.6c0-47.2-38.4-85.6-85.6-85.6c-47.1,0-85.4,38.4-85.4,85.6v1.8c0,2.5-1.1,4.9-3.1,6.4
				c-1.5,1.2-3.3,1.8-5.2,1.8c-0.6,0-1.2-0.1-1.8-0.2c-4.8-1.1-9.8-1.6-15-1.6c-41.6,0-75.4,33.8-75.4,75.4
				c0,41.6,33.8,75.4,75.4,75.4c4.5,0,8.3,3.7,8.3,8.3s-3.7,8.3-8.3,8.3c-50.7,0-91.9-41.2-91.9-91.9c0-50.7,41.2-91.9,91.9-91.9
				c3,0,5.9,0.1,8.8,0.4c4-53.1,48.2-94.3,101.6-94.3c25.5,0,49.9,9.5,68.7,26.6c17.9,16.4,29.4,38.3,32.5,62.2
				c9.2-4.2,18.9-6.4,28.9-6.4c37.8,0,68.7,30.2,69.7,67.8c15,1.9,28.8,9.1,39,20.4c10.8,11.8,16.7,27.1,16.7,43.1
				c0,35.3-28.7,64-64,64H310.6z"/>
			<path class="st0" d="M440,398.6H310.6c-3.3,0-6.1-2.7-6.1-6.1s2.7-6.1,6.1-6.1H440c27.4,0,49.7-22.3,49.7-49.7
				c0-27.4-22.3-49.7-49.7-49.7h-0.4c-1.8,0-3.6-0.8-4.7-2.3c-1.1-1.4-1.6-3.3-1.2-5.1c0.3-1.1,0.3-2.8,0.3-4.5
				c0-30.6-24.9-55.5-55.5-55.5c-11.7,0-23,3.7-32.8,10.8c-1.8,1.3-4.3,1.5-6.3,0.5c-2-1-3.3-3.1-3.3-5.4v-0.6
				c0-48.4-39.4-87.8-87.8-87.8c-48.3,0-87.6,39.4-87.6,87.8v1.8c0,1.8-0.8,3.6-2.3,4.7c-1.4,1.1-3.3,1.6-5.1,1.2
				c-4.9-1.1-10.1-1.7-15.5-1.7c-42.8,0-77.6,34.8-77.6,77.6s34.8,77.6,77.6,77.6c3.3,0,6.1,2.7,6.1,6.1s-2.7,6.1-6.1,6.1
				c-49.5,0-89.7-40.2-89.7-89.7c0-49.5,40.2-89.7,89.7-89.7c3.7,0,7.3,0.2,10.9,0.7c2.8-52.6,46.4-94.5,99.6-94.5
				c51.7,0,94.4,39.5,99.4,90c9.6-4.9,20-7.5,30.8-7.5c37.2,0,67.6,30.3,67.6,67.6c0,0,0,0,0,0c31.2,3.1,55.7,29.5,55.7,61.5
				C501.8,370.9,474.1,398.6,440,398.6z"/>
		</g>
		<g>
			<path class="st0" d="M181.6,520.3c-1.1,0-2.3-0.2-3.3-0.7c-3.6-1.6-5.5-5.3-4.8-9.1l13.7-69.8h-21.5c-2.6,0-5.1-1.2-6.6-3.3
				c-1.5-2.1-2-4.8-1.3-7.3l37.6-124.3c1.1-3.5,4.2-5.9,7.9-5.9h74.4c2.9,0,5.6,1.6,7.1,4.1c1.5,2.5,1.5,5.7,0.1,8.2L245.8,382h25.1
				c3.1,0,5.9,1.7,7.4,4.5c1.4,2.8,1.1,6.1-0.7,8.6L188.2,517C186.7,519.1,184.2,520.3,181.6,520.3z M197.3,424.2
				c2.5,0,4.8,1.1,6.4,3c1.6,1.9,2.2,4.4,1.7,6.8l-8.5,43.3l57.8-78.8h-22.9c-2.9,0-5.6-1.6-7.1-4.1c-1.5-2.5-1.5-5.7-0.1-8.2
				l39.1-69.8h-54.2l-32.6,107.8H197.3z"/>
			<path class="st0" d="M181.6,518.1c-0.8,0-1.6-0.2-2.4-0.5c-2.6-1.1-4.1-3.9-3.5-6.7l14.3-72.4h-24.2c-1.9,0-3.7-0.9-4.9-2.4
				c-1.1-1.5-1.5-3.5-0.9-5.4l37.6-124.3c0.8-2.6,3.1-4.3,5.8-4.3h74.4c2.1,0,4.1,1.1,5.2,3c1.1,1.9,1.1,4.1,0.1,6L242,384.2h28.9
				c2.3,0,4.4,1.3,5.4,3.3c1,2,0.8,4.5-0.5,6.3l-89.3,121.9C185.3,517.3,183.5,518.1,181.6,518.1z M173.9,426.4h23.4
				c1.8,0,3.5,0.8,4.7,2.2c1.1,1.4,1.6,3.2,1.3,5l-10.4,53l66.2-90.3h-27.3c-2.1,0-4.1-1.1-5.2-3c-1.1-1.9-1.1-4.1-0.1-6l40.9-73.1
				h-59.5L173.9,426.4z"/>
		</g>
		<g>
			<g>
				<path class="st0" d="M321.5,439.9c-1.6,0-3.2-0.5-4.5-1.3c-1.8-1.2-3.1-3.1-3.6-5.2c-0.4-2.2,0-4.4,1.2-6.2l11.2-17.2
					c1.5-2.3,4.1-3.7,6.9-3.7c1.6,0,3.2,0.5,4.5,1.3c1.8,1.2,3.1,3.1,3.6,5.2c0.4,2.2,0,4.4-1.2,6.2l-11.2,17.2
					C326.9,438.5,324.3,439.9,321.5,439.9z"/>
				<path class="st0" d="M321.5,437.7c-1.1,0-2.3-0.3-3.3-1c-2.8-1.8-3.6-5.6-1.7-8.4l11.2-17.2c1.8-2.8,5.6-3.6,8.4-1.7
					c2.8,1.8,3.6,5.6,1.7,8.4L326.6,435C325.4,436.8,323.5,437.7,321.5,437.7z"/>
			</g>
			<g>
				<path class="st0" d="M362,439.9c-1.6,0-3.2-0.5-4.5-1.3c-1.8-1.2-3.1-3.1-3.6-5.2c-0.4-2.2,0-4.4,1.2-6.2l11.2-17.2
					c1.5-2.3,4.1-3.7,6.9-3.7c1.6,0,3.2,0.5,4.5,1.3c1.8,1.2,3.1,3.1,3.6,5.2c0.4,2.2,0,4.4-1.2,6.2l-11.2,17.2
					C367.4,438.5,364.8,439.9,362,439.9z"/>
				<path class="st0" d="M362,437.7c-1.1,0-2.3-0.3-3.3-1c-2.8-1.8-3.6-5.6-1.7-8.4l11.2-17.2c1.8-2.8,5.6-3.6,8.4-1.7
					c2.8,1.8,3.6,5.6,1.7,8.4L367.1,435C365.9,436.8,364,437.7,362,437.7z"/>
			</g>
			<g>
				<path class="st0" d="M402.5,439.9c-1.6,0-3.2-0.5-4.5-1.3c-1.8-1.2-3.1-3.1-3.6-5.2c-0.4-2.2,0-4.4,1.2-6.2l11.2-17.2
					c1.5-2.3,4.1-3.7,6.9-3.7c1.6,0,3.2,0.5,4.5,1.3c1.8,1.2,3.1,3.1,3.6,5.2c0.4,2.2,0,4.4-1.2,6.2l-11.2,17.2
					C407.9,438.5,405.3,439.9,402.5,439.9z"/>
				<path class="st0" d="M402.5,437.7c-1.1,0-2.3-0.3-3.3-1c-2.8-1.8-3.6-5.6-1.7-8.4l11.2-17.2c1.8-2.8,5.6-3.6,8.4-1.7
					c2.8,1.8,3.6,5.6,1.7,8.4L407.6,435C406.4,436.8,404.5,437.7,402.5,437.7z"/>
			</g>
		</g>
		<g>
			<g>
				<path class="st0" d="M325.7,479.3c-1.6,0-3.2-0.5-4.5-1.3c-1.8-1.2-3.1-3.1-3.6-5.2c-0.4-2.2,0-4.4,1.2-6.2l11.2-17.2
					c1.5-2.3,4.1-3.7,6.9-3.7c1.6,0,3.2,0.5,4.5,1.3c1.8,1.2,3.1,3.1,3.6,5.2c0.4,2.2,0,4.4-1.2,6.2l-11.2,17.2
					C331.1,477.9,328.5,479.3,325.7,479.3z"/>
				<path class="st0" d="M325.7,477.1c-1.1,0-2.3-0.3-3.3-1c-2.8-1.8-3.6-5.6-1.7-8.4l11.2-17.2c1.8-2.8,5.6-3.6,8.4-1.7
					c2.8,1.8,3.6,5.6,1.7,8.4l-11.2,17.2C329.6,476.1,327.7,477.1,325.7,477.1z"/>
			</g>
			<g>
				<path class="st0" d="M366.2,479.3c-1.6,0-3.2-0.5-4.5-1.3c-1.8-1.2-3.1-3.1-3.6-5.2c-0.4-2.2,0-4.4,1.2-6.2l11.2-17.2
					c1.5-2.3,4.1-3.7,6.9-3.7c1.6,0,3.2,0.5,4.5,1.4c1.8,1.2,3.1,3.1,3.6,5.2c0.4,2.2,0,4.4-1.2,6.2l-11.2,17.2
					C371.6,477.9,369,479.3,366.2,479.3z"/>
				<path class="st0" d="M366.2,477.1c-1.1,0-2.3-0.3-3.3-1c-2.8-1.8-3.6-5.6-1.7-8.4l11.2-17.2c1.8-2.8,5.6-3.6,8.4-1.7
					c2.8,1.8,3.6,5.6,1.7,8.4l-11.2,17.2C370.1,476.1,368.2,477.1,366.2,477.1z"/>
			</g>
			<g>
				<path class="st0" d="M406.7,479.3c-1.6,0-3.2-0.5-4.5-1.3c-1.8-1.2-3.1-3.1-3.6-5.2c-0.4-2.2,0-4.4,1.2-6.2l11.2-17.2
					c1.5-2.3,4.1-3.7,6.9-3.7c1.6,0,3.2,0.5,4.5,1.3c1.8,1.2,3.1,3.1,3.6,5.2c0.4,2.2,0,4.4-1.2,6.2l-11.2,17.2
					C412.1,477.9,409.5,479.3,406.7,479.3z"/>
				<path class="st0" d="M406.7,477.1c-1.1,0-2.3-0.3-3.3-1c-2.8-1.8-3.6-5.6-1.7-8.4l11.2-17.2c1.8-2.8,5.6-3.6,8.4-1.7
					c2.8,1.8,3.6,5.6,1.7,8.4l-11.2,17.2C410.6,476.1,408.7,477.1,406.7,477.1z"/>
			</g>
		</g>
	</g>
	<g>
		<g>
			<path class="st0" d="M289.9,520.5c-1.6,0-3.2-0.5-4.5-1.3c-1.8-1.2-3.1-3.1-3.6-5.2c-0.4-2.2,0-4.4,1.2-6.2l11.2-17.2
				c1.5-2.3,4.1-3.7,6.9-3.7c1.6,0,3.2,0.5,4.5,1.4c1.8,1.2,3.1,3.1,3.6,5.2c0.4,2.2,0,4.4-1.2,6.2l-11.2,17.2
				C295.3,519.1,292.7,520.5,289.9,520.5z"/>
			<path class="st0" d="M289.9,518.3c-1.1,0-2.3-0.3-3.3-1c-2.8-1.8-3.6-5.6-1.7-8.4l11.2-17.2c1.8-2.8,5.6-3.6,8.4-1.7
				c2.8,1.8,3.6,5.6,1.7,8.4L295,515.6C293.8,517.3,291.9,518.3,289.9,518.3z"/>
		</g>
		<g>
			<path class="st0" d="M330.4,520.5c-1.6,0-3.2-0.5-4.5-1.3c-1.8-1.2-3.1-3.1-3.6-5.2c-0.4-2.2,0-4.4,1.2-6.2l11.2-17.2
				c1.5-2.3,4.1-3.7,6.9-3.7c1.6,0,3.2,0.5,4.5,1.4c1.8,1.2,3.1,3.1,3.6,5.2c0.4,2.2,0,4.4-1.2,6.2l-11.2,17.2
				C335.8,519.1,333.2,520.5,330.4,520.5z"/>
			<path class="st0" d="M330.4,518.3c-1.1,0-2.3-0.3-3.3-1c-2.8-1.8-3.6-5.6-1.7-8.4l11.2-17.2c1.8-2.8,5.6-3.6,8.4-1.7
				c2.8,1.8,3.6,5.6,1.7,8.4l-11.2,17.2C334.3,517.3,332.4,518.3,330.4,518.3z"/>
		</g>
		<g>
			<path class="st0" d="M370.9,520.5c-1.6,0-3.2-0.5-4.5-1.3c-1.8-1.2-3.1-3.1-3.6-5.2c-0.4-2.2,0-4.4,1.2-6.2l11.2-17.2
				c1.5-2.3,4.1-3.7,6.9-3.7c1.6,0,3.2,0.5,4.5,1.3c1.8,1.2,3.1,3.1,3.6,5.2c0.4,2.2,0,4.4-1.2,6.2l-11.2,17.2
				C376.3,519.1,373.7,520.5,370.9,520.5z"/>
			<path class="st0" d="M370.9,518.3c-1.1,0-2.3-0.3-3.3-1c-2.8-1.8-3.6-5.6-1.7-8.4l11.2-17.2c1.8-2.8,5.6-3.6,8.4-1.7
				c2.8,1.8,3.6,5.6,1.7,8.4L376,515.6C374.8,517.3,372.9,518.3,370.9,518.3z"/>
		</g>
	</g>
</g>
</svg>
