<?xml version="1.0" encoding="utf-8"?>
<!-- Generator: Adobe Illustrator 26.5.2, SVG Export Plug-In . SVG Version: 6.00 Build 0)  -->
<svg version="1.1" id="Ebene_1" xmlns="http://www.w3.org/2000/svg" xmlns:xlink="http://www.w3.org/1999/xlink" x="0px" y="0px"
	 viewBox="0 0 580 580" style="enable-background:new 0 0 580 580;" xml:space="preserve">
<style type="text/css">
	.st0{fill:#575756;}
</style>
<g>
	<g>
		<path class="st0" d="M374.2,401.2c-4.5,0-8.2-3.7-8.2-8.2c0-4.5,3.7-8.2,8.2-8.2h67c26,0,47.1-21.1,47.1-47.1
			c0-26-21.1-47.1-47.1-47.1h-0.4c-2.5,0-4.8-1.1-6.4-3.1c-1.6-1.9-2.1-4.5-1.6-6.9c0.2-0.9,0.2-2.5,0.2-4
			c0-29.2-23.7-52.9-52.9-52.9c-11.1,0-22,3.6-31.3,10.3c-1.4,1-3.1,1.6-4.8,1.6c-1.3,0-2.6-0.3-3.7-0.9c-2.8-1.4-4.5-4.2-4.5-7.3
			v-0.6c0-46.9-38.1-85-85-85c-46.8,0-84.8,38.1-84.8,85v1.8c0,2.5-1.1,4.8-3.1,6.4c-1.4,1.2-3.3,1.8-5.1,1.8
			c-0.6,0-1.2-0.1-1.8-0.2c-4.7-1.1-9.8-1.6-14.9-1.6c-41.3,0-74.9,33.6-74.9,74.9c0,41.3,33.6,74.9,74.9,74.9h47.1
			c4.5,0,8.2,3.7,8.2,8.2c0,4.5-3.7,8.2-8.2,8.2h-47.1C90.9,401.2,50,360.3,50,310c0-50.3,40.9-91.3,91.3-91.3
			c2.9,0,5.9,0.1,8.8,0.4c4-52.7,47.9-93.6,100.9-93.6c25.3,0,49.5,9.4,68.2,26.5c17.8,16.2,29.2,38.1,32.3,61.7
			c9.1-4.2,18.7-6.3,28.7-6.3c37.5,0,68.2,30,69.2,67.3c14.9,1.9,28.5,9,38.7,20.2c10.7,11.7,16.6,26.9,16.6,42.8
			c0,35-28.5,63.5-63.5,63.5H374.2z"/>
		<path class="st0" d="M441.2,399.1h-67c-3.3,0-6-2.7-6-6c0-3.3,2.7-6,6-6h67c27.2,0,49.3-22.1,49.3-49.3
			c0-27.2-22.1-49.3-49.3-49.3h-0.4c-1.8,0-3.5-0.8-4.7-2.2c-1.1-1.4-1.6-3.3-1.2-5.1c0.3-1.1,0.3-2.7,0.3-4.4
			c0-30.4-24.7-55.1-55.1-55.1c-11.6,0-22.9,3.7-32.6,10.8c-1.8,1.3-4.2,1.5-6.3,0.5c-2-1-3.3-3.1-3.3-5.4v-0.6
			c0-48.1-39.1-87.2-87.2-87.2c-48,0-87,39.1-87,87.2v1.8c0,1.8-0.8,3.5-2.2,4.7c-1.4,1.1-3.3,1.6-5.1,1.2
			c-4.9-1.1-10.1-1.6-15.4-1.6c-42.5,0-77.1,34.6-77.1,77.1S98.8,387,141.3,387h47.1c3.3,0,6,2.7,6,6c0,3.3-2.7,6-6,6h-47.1
			c-49.1,0-89.1-40-89.1-89.1c0-49.1,40-89.1,89.1-89.1c3.6,0,7.3,0.2,10.8,0.7c2.8-52.2,46-93.9,98.8-93.9
			c51.4,0,93.7,39.3,98.7,89.3c9.5-4.9,19.9-7.5,30.6-7.5c37,0,67.1,30.1,67.1,67.1c0,0,0,0,0,0c31,3,55.3,29.2,55.3,61
			C502.5,371.5,475,399.1,441.2,399.1z"/>
	</g>
	<g>
		<path class="st0" d="M441.3,285.9c-3.4,0-6.5-2.2-7.7-5.4c-0.7-2.1-0.6-4.3,0.3-6.3c0.9-2,2.6-3.5,4.6-4.2
			c28.8-10.3,48.1-37.8,48.1-68.3c0-40.1-32.7-72.8-72.9-72.8c-34.6,0-64.5,24.5-71.2,58.2c-0.8,3.8-4.1,6.6-8,6.6
			c-0.5,0-1.1-0.1-1.6-0.2c-2.1-0.4-4-1.7-5.2-3.5c-1.2-1.8-1.7-4-1.2-6.1c8.2-41.4,44.9-71.4,87.3-71.4c49.2,0,89.3,40,89.3,89.1
			c0,37.4-23.7,71.1-58.9,83.7C443.2,285.7,442.2,285.9,441.3,285.9z"/>
		<path class="st0" d="M441.3,283.7c-2.5,0-4.8-1.5-5.7-4c-1.1-3.1,0.5-6.6,3.6-7.7c29.6-10.6,49.5-38.9,49.5-70.3
			c0-41.3-33.7-74.9-75.1-74.9c-35.6,0-66.5,25.2-73.4,60c-0.6,3.3-3.8,5.4-7.1,4.7c-3.3-0.6-5.4-3.8-4.7-7.1
			c8-40.4,43.8-69.7,85.1-69.7c48,0,87.1,39,87.1,87c0,36.5-23.1,69.3-57.5,81.6C442.7,283.6,442,283.7,441.3,283.7z"/>
	</g>
	<g>
		<path class="st0" d="M413.8,105.3c-4.5,0-8.2-3.7-8.2-8.2V56.6c0-4.5,3.7-8.2,8.2-8.2c4.5,0,8.2,3.7,8.2,8.2v40.5
			C421.9,101.6,418.3,105.3,413.8,105.3z"/>
		<path class="st0" d="M413.8,103.1c-3.3,0-6-2.7-6-6V56.6c0-3.3,2.7-6,6-6c3.3,0,6,2.7,6,6v40.5
			C419.8,100.4,417.1,103.1,413.8,103.1z"/>
	</g>
	<g>
		<path class="st0" d="M487.7,135.9c-2.2,0-4.2-0.9-5.8-2.4c-1.5-1.5-2.4-3.6-2.4-5.8s0.9-4.2,2.4-5.8l28.6-28.6
			c1.5-1.5,3.6-2.4,5.8-2.4s4.2,0.9,5.8,2.4c1.5,1.5,2.4,3.6,2.4,5.8c0,2.2-0.9,4.2-2.4,5.8l-28.6,28.6
			C491.9,135.1,489.9,135.9,487.7,135.9z"/>
		<path class="st0" d="M487.7,133.8c-1.5,0-3.1-0.6-4.2-1.8c-2.3-2.3-2.3-6.1,0-8.5l28.6-28.6c2.3-2.3,6.2-2.3,8.5,0
			c2.3,2.3,2.3,6.1,0,8.5L491.9,132C490.8,133.2,489.2,133.8,487.7,133.8z"/>
	</g>
	<g>
		<path class="st0" d="M518.3,209.9c-4.5,0-8.2-3.7-8.2-8.2c0-4.5,3.7-8.2,8.2-8.2h40.5c4.5,0,8.2,3.7,8.2,8.2
			c0,4.5-3.7,8.2-8.2,8.2H518.3z"/>
		<path class="st0" d="M558.8,207.7h-40.5c-3.3,0-6-2.7-6-6c0-3.3,2.7-6,6-6h40.5c3.3,0,6,2.7,6,6
			C564.8,205,562.1,207.7,558.8,207.7z"/>
	</g>
	<g>
		<path class="st0" d="M516.3,312.4c-2.2,0-4.2-0.9-5.8-2.4l-28.6-28.6c-1.5-1.5-2.4-3.6-2.4-5.8s0.9-4.2,2.4-5.8
			c1.5-1.5,3.6-2.4,5.8-2.4c2.2,0,4.2,0.9,5.8,2.4l28.6,28.6c1.5,1.5,2.4,3.6,2.4,5.8s-0.9,4.2-2.4,5.8
			C520.6,311.6,518.5,312.4,516.3,312.4z"/>
		<path class="st0" d="M516.3,310.3c-1.5,0-3.1-0.6-4.2-1.8l-28.6-28.6c-2.3-2.3-2.3-6.1,0-8.5c2.3-2.3,6.2-2.3,8.5,0l28.6,28.6
			c2.3,2.3,2.3,6.1,0,8.5C519.4,309.7,517.9,310.3,516.3,310.3z"/>
	</g>
	<g>
		<path class="st0" d="M339.8,135.9c-2.2,0-4.2-0.9-5.8-2.4l-28.6-28.6c-1.5-1.5-2.4-3.6-2.4-5.8c0-2.2,0.9-4.2,2.4-5.8
			c1.5-1.5,3.6-2.4,5.8-2.4s4.2,0.9,5.8,2.4l28.6,28.6c1.5,1.5,2.4,3.6,2.4,5.8s-0.9,4.2-2.4,5.8C344.1,135.1,342,135.9,339.8,135.9
			z"/>
		<path class="st0" d="M339.8,133.8c-1.5,0-3.1-0.6-4.2-1.8l-28.6-28.6c-2.3-2.3-2.3-6.1,0-8.5c2.3-2.3,6.2-2.3,8.5,0l28.6,28.6
			c2.3,2.3,2.3,6.1,0,8.5C342.9,133.2,341.4,133.8,339.8,133.8z"/>
	</g>
	<g>
		<path class="st0" d="M239.2,521.7c-1.1,0-2.2-0.2-3.3-0.7c-3.5-1.6-5.5-5.3-4.7-9.1l13.6-69.2h-21.3c-2.6,0-5-1.2-6.6-3.3
			c-1.5-2.1-2-4.8-1.3-7.3L252.9,309c1.1-3.5,4.2-5.8,7.8-5.8h73.7c2.9,0,5.6,1.6,7.1,4.1c1.5,2.5,1.5,5.6,0.1,8.1l-38.7,69.1h24.9
			c3.1,0,5.9,1.7,7.3,4.5c1.4,2.8,1.1,6-0.7,8.5l-88.5,120.8C244.3,520.4,241.8,521.7,239.2,521.7z M254.8,426.4
			c2.5,0,4.8,1.1,6.3,3c1.6,1.9,2.2,4.4,1.7,6.8l-8.4,42.8l57.2-78h-22.7c-2.9,0-5.6-1.6-7.1-4c-1.5-2.5-1.5-5.6-0.1-8.1l38.7-69.1
			h-53.6l-32.3,106.8H254.8z"/>
		<path class="st0" d="M239.2,519.5c-0.8,0-1.6-0.2-2.4-0.5c-2.6-1.1-4-3.9-3.5-6.7l14.1-71.8h-24c-1.9,0-3.7-0.9-4.8-2.4
			c-1.1-1.5-1.5-3.5-0.9-5.3L255,309.6c0.8-2.5,3.1-4.3,5.8-4.3h73.7c2.1,0,4.1,1.1,5.2,3c1.1,1.8,1.1,4.1,0.1,6l-40.6,72.4h28.6
			c2.3,0,4.3,1.3,5.4,3.3c1,2,0.8,4.4-0.5,6.3L244.1,517C242.9,518.6,241.1,519.5,239.2,519.5z M231.6,428.5h23.2
			c1.8,0,3.5,0.8,4.6,2.2c1.1,1.4,1.6,3.2,1.3,5l-10.3,52.4l65.5-89.4h-27c-2.1,0-4.1-1.1-5.2-3c-1.1-1.8-1.1-4.1-0.1-6l40.6-72.4
			h-59L231.6,428.5z"/>
	</g>
</g>
</svg>
