<?xml version="1.0" encoding="utf-8"?>
<!-- Generator: Adobe Illustrator 26.5.2, SVG Export Plug-In . SVG Version: 6.00 Build 0)  -->
<svg version="1.1" id="Ebene_1" xmlns="http://www.w3.org/2000/svg" xmlns:xlink="http://www.w3.org/1999/xlink" x="0px" y="0px"
	 viewBox="0 0 580 580" style="enable-background:new 0 0 580 580;" xml:space="preserve">
<style type="text/css">
	.st0{fill:#575756;}
</style>
<g>
	<g>
		<path class="st0" d="M130.2,400.2c-46.1,0-83.6-37.5-83.6-83.6s37.5-83.6,83.6-83.6c2.7,0,5.4,0.1,8,0.4
			c3.6-48.2,43.8-85.7,92.4-85.7c23.1,0,45.3,8.6,62.5,24.2c16.3,14.9,26.7,34.9,29.6,56.5c8.3-3.8,17.2-5.8,26.3-5.8
			c34.4,0,62.4,27.5,63.4,61.6c13.6,1.8,26.1,8.3,35.5,18.5c9.8,10.7,15.2,24.6,15.2,39.2c0,32.1-26.1,58.1-58.1,58.1H130.2z
			 M130.2,248.1c-37.8,0-68.6,30.8-68.6,68.6s30.8,68.6,68.6,68.6h274.6c23.8,0,43.1-19.4,43.1-43.1S428.6,299,404.9,299h-0.4
			c-2.3,0-4.4-1-5.8-2.8c-1.4-1.8-2-4.1-1.5-6.3c0.2-0.8,0.2-2.3,0.2-3.6c0-26.7-21.7-48.4-48.4-48.4c-10.2,0-20.1,3.3-28.6,9.5
			c-1.3,0.9-2.8,1.4-4.4,1.4c-1.2,0-2.4-0.3-3.4-0.8c-2.5-1.3-4.1-3.8-4.1-6.7v-0.5c0-42.9-34.9-77.8-77.8-77.8
			c-42.8,0-77.6,34.9-77.6,77.8v1.6c0,2.3-1,4.4-2.8,5.9c-1.3,1.1-3,1.6-4.7,1.6c-0.5,0-1.1-0.1-1.6-0.2
			C139.5,248.6,134.9,248.1,130.2,248.1z"/>
		<path class="st0" d="M404.9,398.2H130.2c-45,0-81.6-36.6-81.6-81.6c0-45,36.6-81.6,81.6-81.6c3.3,0,6.6,0.2,9.9,0.6
			c2.5-47.8,42.2-85.9,90.5-85.9c47,0,85.8,35.9,90.4,81.8c8.7-4.5,18.2-6.8,28-6.8c33.9,0,61.4,27.5,61.4,61.4c0,0,0,0,0,0
			C438.7,289,461,313,461,342.1C461,373.1,435.8,398.2,404.9,398.2z M130.2,246.1c-38.9,0-70.6,31.7-70.6,70.6s31.7,70.6,70.6,70.6
			h274.6c24.9,0,45.1-20.3,45.1-45.1S429.7,297,404.9,297h-0.4c-1.7,0-3.2-0.8-4.3-2.1c-1-1.3-1.4-3-1.1-4.6c0.2-1,0.2-2.5,0.2-4.1
			c0-27.8-22.6-50.4-50.4-50.4c-10.6,0-20.9,3.4-29.8,9.8c-1.7,1.2-3.9,1.4-5.7,0.4c-1.8-0.9-3-2.8-3-4.9v-0.5
			c0-44-35.8-79.8-79.8-79.8c-43.9,0-79.6,35.8-79.6,79.8v1.6c0,1.7-0.8,3.2-2.1,4.3c-1.3,1-3,1.4-4.6,1.1
			C139.8,246.6,135.1,246.1,130.2,246.1z"/>
	</g>
	<g>
		<path class="st0" d="M450.6,327.9c-4.1,0-7.5-3.4-7.5-7.5s3.4-7.5,7.5-7.5h36.8c28.1,0,50.9-22.8,50.9-50.8
			c0-28.1-22.8-50.9-50.9-50.9c-3.6,0-6.9,0.4-9.9,1.1c-0.6,0.1-1.2,0.2-1.8,0.2c-1.7,0-3.3-0.6-4.6-1.6c-1.8-1.4-2.9-3.6-2.9-5.9
			v-1.3c0-31.9-25.9-57.9-57.8-57.9c-31.9,0-57.9,26-57.9,57.9v0.4c0,2.8-1.6,5.4-4.1,6.7c-1.1,0.5-2.3,0.8-3.4,0.8
			c-1.6,0-3.1-0.5-4.3-1.4c-6.4-4.5-13.7-6.9-21.1-6.9c-4.4,0-8.4,0.7-12.2,2.2c-0.9,0.3-1.8,0.5-2.7,0.5c-3.1,0-5.9-1.9-7-4.8
			c-1.5-3.9,0.4-8.2,4.3-9.7c5.6-2.2,11.4-3.2,17.6-3.2c6.5,0,12.8,1.2,18.8,3.7c5.7-35.1,36.2-61.2,72-61.2
			c37.3,0,68.7,28.6,72.4,65.6c1.5-0.1,3-0.2,4.5-0.2c36.4,0,65.9,29.6,65.9,65.9c0,36.3-29.6,65.8-65.9,65.8H450.6z"/>
		<path class="st0" d="M487.4,325.9h-36.8c-3,0-5.5-2.5-5.5-5.5c0-3,2.5-5.5,5.5-5.5h36.8c29.2,0,52.9-23.7,52.9-52.8
			c0-29.2-23.7-52.9-52.9-52.9c-3.8,0-7.2,0.4-10.4,1.1c-1.6,0.4-3.4,0-4.7-1c-1.3-1-2.1-2.6-2.1-4.3v-1.3c0-33-26.8-59.9-59.8-59.9
			c-33,0-59.9,26.9-59.9,59.9v0.4c0,2.1-1.1,3.9-3,4.9c-1.8,0.9-4,0.8-5.7-0.4c-6.7-4.8-14.4-7.3-22.2-7.3c-4.6,0-8.8,0.8-12.9,2.3
			c-2.8,1.1-6-0.3-7.1-3.1c-1.1-2.8,0.3-6,3.1-7.1c5.4-2.1,10.9-3.1,16.9-3.1c7,0,14,1.6,20.4,4.6c4.4-35,34.3-62.1,70.4-62.1
			c37.3,0,68,29,70.6,65.8c2-0.2,4.1-0.3,6.3-0.3c35.3,0,63.9,28.7,63.9,63.9C551.3,297.3,522.6,325.9,487.4,325.9z"/>
	</g>
</g>
</svg>
