<?xml version="1.0" encoding="utf-8"?>
<!-- Generator: Adobe Illustrator 26.5.2, SVG Export Plug-In . SVG Version: 6.00 Build 0)  -->
<svg version="1.1" id="Ebene_1" xmlns="http://www.w3.org/2000/svg" xmlns:xlink="http://www.w3.org/1999/xlink" x="0px" y="0px"
	 viewBox="0 0 580 580" style="enable-background:new 0 0 580 580;" xml:space="preserve">
<style type="text/css">
	.st0{fill:#575756;}
</style>
<g>
	<g>
		<path class="st0" d="M417.6,400.8c-4.6,0-8.3-3.7-8.3-8.3s3.7-8.3,8.3-8.3h36.9c26.4,0,47.9-21.5,47.9-47.9
			c0-26.4-21.5-47.9-47.9-47.9h-0.4c-2.5,0-4.9-1.1-6.5-3.1c-1.6-2-2.2-4.5-1.6-7c0.2-0.9,0.2-2.5,0.2-4c0-29.6-24.1-53.7-53.7-53.7
			c-11.3,0-22.3,3.6-31.8,10.5c-1.4,1-3.1,1.6-4.9,1.6c-1.3,0-2.6-0.3-3.8-0.9c-2.8-1.4-4.5-4.3-4.5-7.4v-0.6
			c0-47.6-38.7-86.4-86.4-86.4c-47.5,0-86.2,38.7-86.2,86.4v1.8c0,2.5-1.1,4.9-3.1,6.5c-1.5,1.2-3.3,1.8-5.2,1.8
			c-0.6,0-1.2-0.1-1.8-0.2c-4.8-1.1-9.9-1.6-15.1-1.6c-42,0-76.1,34.1-76.1,76.1s34.1,76.1,76.1,76.1h24.2c4.6,0,8.3,3.7,8.3,8.3
			s-3.7,8.3-8.3,8.3h-24.2c-51.1,0-92.7-41.6-92.7-92.8s41.6-92.8,92.7-92.8c3,0,6,0.1,8.9,0.4c4-53.5,48.6-95.1,102.5-95.1
			c25.7,0,50.3,9.5,69.3,26.9c18.1,16.5,29.7,38.7,32.8,62.8c9.2-4.3,19.1-6.4,29.2-6.4c38.2,0,69.3,30.5,70.4,68.4
			c15.1,1.9,29,9.2,39.4,20.5c10.9,11.9,16.9,27.4,16.9,43.5c0,35.6-29,64.5-64.5,64.5H417.6z"/>
		<path class="st0" d="M454.5,398.6h-36.9c-3.4,0-6.1-2.7-6.1-6.1s2.7-6.1,6.1-6.1h36.9c27.6,0,50.1-22.5,50.1-50.1
			c0-27.6-22.5-50.1-50.1-50.1h-0.4c-1.9,0-3.6-0.8-4.8-2.3c-1.2-1.4-1.6-3.3-1.2-5.1c0.3-1.2,0.3-2.8,0.3-4.5c0-30.9-25.1-56-56-56
			c-11.8,0-23.2,3.8-33.1,10.9c-1.9,1.3-4.3,1.5-6.4,0.5c-2-1-3.3-3.1-3.3-5.4v-0.6c0-48.9-39.7-88.6-88.6-88.6
			c-48.7,0-88.4,39.7-88.4,88.6v1.8c0,1.9-0.8,3.6-2.3,4.8c-1.4,1.2-3.3,1.6-5.1,1.2c-5-1.1-10.2-1.7-15.6-1.7
			c-43.2,0-78.3,35.1-78.3,78.3s35.1,78.3,78.3,78.3h24.2c3.4,0,6.1,2.7,6.1,6.1s-2.7,6.1-6.1,6.1h-24.2
			c-49.9,0-90.5-40.6-90.5-90.5c0-49.9,40.6-90.5,90.5-90.5c3.7,0,7.4,0.2,11,0.7c2.8-53.1,46.8-95.4,100.5-95.4
			c52.2,0,95.3,39.9,100.3,90.8c9.7-5,20.2-7.6,31.1-7.6c37.6,0,68.2,30.6,68.2,68.2c0,0,0,0,0,0c31.5,3.1,56.2,29.7,56.2,62
			C516.8,370.6,488.8,398.6,454.5,398.6z"/>
	</g>
	<g>
		<path class="st0" d="M227.4,385.2c-1.4,0-2.8-0.4-4-1c-1.9-1.1-3.4-2.9-4-5c-0.6-2.1-0.4-4.4,0.7-6.3l11.1-19.9
			c1.5-2.6,4.3-4.3,7.3-4.3c1.4,0,2.8,0.4,4,1c1.9,1.1,3.4,2.9,4,5c0.6,2.1,0.4,4.4-0.7,6.3l-11.1,19.9
			C233.2,383.5,230.4,385.2,227.4,385.2z"/>
		<path class="st0" d="M227.4,383c-1,0-2-0.2-3-0.8c-2.9-1.6-4-5.4-2.4-8.3l11.1-19.9c1.6-2.9,5.4-4,8.3-2.4c2.9,1.6,4,5.4,2.4,8.3
			l-11.1,19.9C231.7,381.8,229.6,383,227.4,383z"/>
	</g>
	<g>
		<path class="st0" d="M203.8,428.1c-1.4,0-2.8-0.4-4-1c-1.9-1.1-3.4-2.9-4-5s-0.4-4.4,0.7-6.3l11.1-19.9c1.5-2.6,4.3-4.3,7.3-4.3
			c1.4,0,2.8,0.4,4,1c1.9,1.1,3.4,2.9,4,5s0.4,4.4-0.7,6.3L211,423.8C209.6,426.5,206.8,428.1,203.8,428.1z"/>
		<path class="st0" d="M203.8,425.9c-1,0-2-0.2-3-0.8c-2.9-1.6-4-5.4-2.4-8.3l11.1-19.9c1.6-2.9,5.4-4,8.3-2.4
			c2.9,1.6,4,5.4,2.4,8.3l-11.1,19.9C208,424.8,205.9,425.9,203.8,425.9z"/>
	</g>
	<g>
		<path class="st0" d="M324.9,385.2c-1.4,0-2.8-0.4-4-1c-1.9-1.1-3.4-2.9-4-5s-0.4-4.4,0.7-6.3l11.1-19.9c1.5-2.6,4.3-4.3,7.3-4.3
			c1.4,0,2.8,0.4,4,1c1.9,1.1,3.4,2.9,4,5s0.4,4.4-0.7,6.3l-11.1,19.9C330.7,383.5,327.9,385.2,324.9,385.2z"/>
		<path class="st0" d="M324.9,383c-1,0-2-0.2-3-0.8c-2.9-1.6-4-5.4-2.4-8.3l11.1-19.9c1.6-2.9,5.4-4,8.3-2.4c2.9,1.6,4,5.4,2.4,8.3
			l-11.1,19.9C329.1,381.8,327,383,324.9,383z"/>
	</g>
	<g>
		<path class="st0" d="M301.2,428.1c-1.4,0-2.8-0.4-4-1c-1.9-1.1-3.4-2.9-4-5c-0.6-2.1-0.4-4.4,0.7-6.3l11.1-19.9
			c1.5-2.6,4.3-4.3,7.3-4.3c1.4,0,2.8,0.4,4,1c1.9,1.1,3.4,2.9,4,5c0.6,2.1,0.4,4.4-0.7,6.3l-11.1,19.9
			C307,426.5,304.3,428.1,301.2,428.1z"/>
		<path class="st0" d="M301.2,425.9c-1,0-2-0.2-3-0.8c-2.9-1.6-4-5.4-2.4-8.3l11.1-19.9c1.6-2.9,5.4-4,8.3-2.4
			c2.9,1.6,4,5.4,2.4,8.3l-11.1,19.9C305.5,424.8,303.4,425.9,301.2,425.9z"/>
	</g>
	<g>
		<path class="st0" d="M290.2,353.8c-1.4,0-2.8-0.4-4-1c-1.9-1.1-3.4-2.9-4-5c-0.6-2.1-0.4-4.4,0.7-6.3l11.1-19.9
			c1.5-2.6,4.3-4.3,7.3-4.3c1.4,0,2.8,0.4,4,1c1.9,1.1,3.4,2.9,4,5c0.6,2.1,0.4,4.4-0.7,6.3l-11.1,19.9
			C296,352.1,293.2,353.8,290.2,353.8z"/>
		<path class="st0" d="M290.2,351.5c-1,0-2-0.2-3-0.8c-2.9-1.6-4-5.4-2.4-8.3l11.1-19.9c1.6-2.9,5.4-4,8.3-2.4
			c2.9,1.6,4,5.4,2.4,8.3l-11.1,19.9C294.4,350.4,292.3,351.5,290.2,351.5z"/>
	</g>
	<g>
		<path class="st0" d="M266.5,396.7c-1.4,0-2.8-0.4-4-1c-1.9-1.1-3.4-2.9-4-5c-0.6-2.1-0.4-4.4,0.7-6.3l11.1-19.9
			c1.5-2.6,4.3-4.3,7.3-4.3c1.4,0,2.8,0.4,4,1c1.9,1.1,3.4,2.9,4,5c0.6,2.1,0.4,4.4-0.7,6.3l-11.1,19.9
			C272.3,395.1,269.5,396.7,266.5,396.7z"/>
		<path class="st0" d="M266.5,394.5c-1,0-2-0.2-3-0.8c-2.9-1.6-4-5.4-2.4-8.3l11.1-19.9c1.6-2.9,5.4-4,8.3-2.4
			c2.9,1.6,4,5.4,2.4,8.3l-11.1,19.9C270.7,393.3,268.7,394.5,266.5,394.5z"/>
	</g>
	<g>
		<path class="st0" d="M244.8,438.1c-1.4,0-2.8-0.4-4-1c-1.9-1.1-3.4-2.9-4-5s-0.4-4.4,0.7-6.3l11.1-19.9c1.5-2.6,4.3-4.3,7.3-4.3
			c1.4,0,2.8,0.4,4,1c1.9,1.1,3.4,2.9,4,5c0.6,2.1,0.4,4.4-0.7,6.3l-11.1,19.9C250.6,436.4,247.8,438.1,244.8,438.1z"/>
		<path class="st0" d="M244.8,435.8c-1,0-2-0.2-3-0.8c-2.9-1.6-4-5.4-2.4-8.3l11.1-19.9c1.6-2.9,5.4-4,8.3-2.4
			c2.9,1.6,4,5.4,2.4,8.3l-11.1,19.9C249,434.7,246.9,435.8,244.8,435.8z"/>
	</g>
	<g>
		<path class="st0" d="M383.4,376c-1.5,0-2.9-0.4-4.2-1.1c-4-2.3-5.3-7.4-3-11.4l11.6-19.9c1.5-2.6,4.2-4.1,7.2-4.1
			c1.5,0,2.9,0.4,4.2,1.1c4,2.3,5.3,7.4,3,11.4l-11.6,19.9C389.1,374.4,386.3,376,383.4,376z"/>
		<path class="st0" d="M383.4,373.8c-1,0-2.1-0.3-3.1-0.8c-2.9-1.7-3.9-5.4-2.2-8.3l11.6-19.9c1.7-2.9,5.4-3.9,8.3-2.2
			c2.9,1.7,3.9,5.4,2.2,8.3l-11.6,19.9C387.5,372.7,385.5,373.8,383.4,373.8z"/>
	</g>
	<g>
		<path class="st0" d="M358.7,418.9c-1.5,0-2.9-0.4-4.2-1.1c-4-2.3-5.3-7.4-3-11.4l11.6-19.9c1.5-2.6,4.2-4.1,7.2-4.1
			c1.5,0,2.9,0.4,4.2,1.1c4,2.3,5.3,7.4,3,11.4l-11.6,19.9C364.4,417.4,361.6,418.9,358.7,418.9z"/>
		<path class="st0" d="M358.7,416.7c-1,0-2.1-0.3-3.1-0.8c-2.9-1.7-3.9-5.4-2.2-8.3l11.6-19.9c1.7-2.9,5.4-3.9,8.3-2.2
			c2.9,1.7,3.9,5.4,2.2,8.3l-11.6,19.9C362.8,415.6,360.8,416.7,358.7,416.7z"/>
	</g>
	<g>
		<path class="st0" d="M336,460.3c-1.5,0-2.9-0.4-4.2-1.1c-1.9-1.1-3.3-2.9-3.9-5.1c-0.6-2.1-0.3-4.4,0.8-6.3l11.6-19.9
			c1.5-2.6,4.2-4.1,7.2-4.1c1.5,0,2.9,0.4,4.2,1.1c1.9,1.1,3.3,2.9,3.9,5.1c0.6,2.1,0.3,4.4-0.8,6.3l-11.6,19.9
			C341.7,458.7,338.9,460.3,336,460.3z"/>
		<path class="st0" d="M336,458.1c-1,0-2.1-0.3-3.1-0.8c-2.9-1.7-3.9-5.4-2.2-8.3l11.6-19.9c1.7-2.9,5.4-3.9,8.3-2.2
			c2.9,1.7,3.9,5.4,2.2,8.3l-11.6,19.9C340.1,457,338.1,458.1,336,458.1z"/>
	</g>
	<g>
		<path class="st0" d="M221.1,481c-1.4,0-2.8-0.4-4-1c-1.9-1.1-3.4-2.9-4-5c-0.6-2.1-0.4-4.4,0.7-6.3l11.1-19.9
			c1.5-2.6,4.3-4.3,7.3-4.3c1.4,0,2.8,0.4,4,1c1.9,1.1,3.4,2.9,4,5c0.6,2.1,0.4,4.4-0.7,6.3l-11.1,19.9
			C226.9,479.4,224.1,481,221.1,481z"/>
		<path class="st0" d="M221.1,478.8c-1,0-2-0.2-3-0.8c-2.9-1.6-4-5.4-2.4-8.3l11.1-19.9c1.6-2.9,5.4-4,8.3-2.4
			c2.9,1.6,4,5.4,2.4,8.3l-11.1,19.9C225.3,477.6,223.3,478.8,221.1,478.8z"/>
	</g>
</g>
</svg>
