<?xml version="1.0" encoding="utf-8"?>
<!-- Generator: Adobe Illustrator 26.5.2, SVG Export Plug-In . SVG Version: 6.00 Build 0)  -->
<svg version="1.1" id="Ebene_1" xmlns="http://www.w3.org/2000/svg" xmlns:xlink="http://www.w3.org/1999/xlink" x="0px" y="0px"
	 viewBox="0 0 580 580" style="enable-background:new 0 0 580 580;" xml:space="preserve">
<style type="text/css">
	.st0{fill:#575756;}
</style>
<g>
	<g>
		<path class="st0" d="M410.5,400.7c-4.5,0-8.1-3.6-8.1-8c0-4.4,3.6-8,8.1-8h35.8c25.7,0,46.5-20.5,46.5-45.8
			c0-25.2-20.9-45.8-46.5-45.8h-0.4c-2.5,0-4.8-1.1-6.3-3c-1.5-1.9-2.1-4.3-1.6-6.7c0.2-0.9,0.2-2.4,0.2-3.9
			c0-28.3-23.4-51.3-52.2-51.3c-11,0-21.7,3.5-30.9,10c-1.4,1-3,1.5-4.8,1.5c-1.3,0-2.5-0.3-3.7-0.9c-2.7-1.4-4.4-4.1-4.4-7.1v-0.6
			c0-45.5-37.7-82.5-83.9-82.5c-46.2,0-83.8,37-83.8,82.5v1.7c0,2.4-1.1,4.7-3,6.2c-1.4,1.1-3.2,1.8-5.1,1.8c-0.6,0-1.2-0.1-1.8-0.2
			c-4.7-1-9.6-1.5-14.7-1.5c-40.8,0-74,32.6-74,72.7c0,40.1,33.2,72.7,74,72.7h23.5c4.5,0,8.1,3.6,8.1,8c0,4.4-3.6,8-8.1,8H150
			c-49.7,0-90.1-39.8-90.1-88.6s40.4-88.6,90.1-88.6c2.9,0,5.8,0.1,8.6,0.4c3.9-51.2,47.3-90.9,99.6-90.9c25,0,48.9,9.1,67.4,25.7
			c17.6,15.8,28.8,37,31.9,60c9-4.1,18.5-6.1,28.4-6.1c37.1,0,67.4,29.2,68.4,65.4c14.7,1.9,28.2,8.8,38.3,19.6
			c10.6,11.4,16.4,26.1,16.4,41.5c0,34-28.1,61.7-62.7,61.7H410.5z"/>
		<path class="st0" d="M446.3,398.6h-35.8c-3.3,0-5.9-2.6-5.9-5.8c0-3.2,2.7-5.8,5.9-5.8h35.8c26.9,0,48.7-21.5,48.7-47.9
			c0-26.4-21.8-47.9-48.7-47.9h-0.4c-1.8,0-3.5-0.8-4.6-2.2c-1.1-1.4-1.6-3.2-1.2-4.9c0.2-1.1,0.2-2.7,0.2-4.3
			c0-29.5-24.4-53.5-54.4-53.5c-11.5,0-22.6,3.6-32.2,10.4c-1.8,1.3-4.2,1.5-6.2,0.5c-2-1-3.2-3-3.2-5.2v-0.6
			c0-46.7-38.6-84.6-86.1-84.6c-47.4,0-85.9,38-85.9,84.6v1.7c0,1.8-0.8,3.4-2.2,4.5c-1.4,1.1-3.2,1.5-5,1.1
			c-4.8-1.1-9.9-1.6-15.2-1.6c-42,0-76.1,33.6-76.1,74.8s34.1,74.8,76.1,74.8h23.5c3.3,0,5.9,2.6,5.9,5.8c0,3.2-2.7,5.8-5.9,5.8H150
			c-48.5,0-88-38.8-88-86.5c0-47.7,39.5-86.5,88-86.5c3.6,0,7.2,0.2,10.7,0.7c2.7-50.7,45.5-91.1,97.6-91.1
			c50.7,0,92.6,38.1,97.5,86.8c9.4-4.8,19.7-7.2,30.2-7.2c36.5,0,66.2,29.2,66.2,65.1c0,0,0,0,0,0c30.6,2.9,54.6,28.4,54.6,59.3
			C506.8,371.9,479.7,398.6,446.3,398.6z"/>
	</g>
	<g>
		<g>
			<path class="st0" d="M237.1,340.3c-4.5,0-8.1-3.6-8.1-8c0-4.4,3.6-8,8.1-8h96c4.5,0,8.1,3.6,8.1,8c0,4.4-3.6,8-8.1,8H237.1z"/>
			<path class="st0" d="M333.1,338.1h-96c-3.3,0-5.9-2.6-5.9-5.8c0-3.2,2.7-5.8,5.9-5.8h96c3.3,0,5.9,2.6,5.9,5.8
				C339,335.5,336.4,338.1,333.1,338.1z"/>
		</g>
		<g>
			<path class="st0" d="M310.4,380.4c-2.8,0-5.4-1.4-6.9-3.8l-50.7-80.2c-2.4-3.7-1.2-8.6,2.6-11c1.3-0.8,2.8-1.2,4.3-1.2
				c2.8,0,5.4,1.4,6.9,3.8l50.7,80.2c2.4,3.7,1.2,8.6-2.6,11C313.4,379.9,312,380.4,310.4,380.4z"/>
			<path class="st0" d="M310.4,378.2c-2,0-3.9-1-5-2.8l-50.7-80.2c-1.7-2.7-0.9-6.3,1.9-8c2.8-1.7,6.4-0.9,8.2,1.9l50.7,80.2
				c1.7,2.7,0.9,6.3-1.9,8C312.6,378,311.5,378.2,310.4,378.2z"/>
		</g>
		<g>
			<path class="st0" d="M258,379.2c-1.6,0-3.2-0.5-4.6-1.4c-1.8-1.2-3-3-3.4-5.1c-0.4-2.1,0.1-4.2,1.3-6l54.2-77.9
				c1.5-2.2,4-3.5,6.7-3.5c1.6,0,3.2,0.5,4.6,1.4c3.7,2.5,4.6,7.4,2.1,11.1l-54.2,77.9C263.2,377.9,260.7,379.2,258,379.2z"/>
			<path class="st0" d="M258,377.1c-1.2,0-2.3-0.3-3.3-1c-2.7-1.8-3.4-5.4-1.5-8.1l54.2-77.9c1.8-2.7,5.5-3.3,8.2-1.5
				c2.7,1.8,3.4,5.4,1.5,8.1l-54.2,77.9C261.7,376.2,259.9,377.1,258,377.1z"/>
		</g>
	</g>
	<g>
		<g>
			<path class="st0" d="M161.7,458.4c-4.5,0-8.1-3.6-8.1-8c0-4.4,3.6-8,8.1-8h70c4.5,0,8.1,3.6,8.1,8c0,4.4-3.6,8-8.1,8H161.7z"/>
			<path class="st0" d="M231.7,456.3h-70c-3.3,0-5.9-2.6-5.9-5.8s2.7-5.8,5.9-5.8h70c3.3,0,5.9,2.6,5.9,5.8S235,456.3,231.7,456.3z"
				/>
		</g>
		<g>
			<path class="st0" d="M215.2,487.6c-2.8,0-5.4-1.4-6.9-3.8l-36.9-58.4c-2.4-3.7-1.2-8.6,2.6-11c1.3-0.8,2.8-1.2,4.3-1.2
				c2.8,0,5.4,1.4,6.9,3.8l36.9,58.4c2.4,3.7,1.2,8.6-2.6,11C218.2,487.2,216.7,487.6,215.2,487.6z"/>
			<path class="st0" d="M215.2,485.5c-2,0-3.9-1-5-2.8l-36.9-58.4c-1.7-2.7-0.9-6.3,1.9-8c2.8-1.7,6.4-0.9,8.2,1.9l36.9,58.4
				c1.7,2.7,0.9,6.3-1.9,8C217.3,485.2,216.3,485.5,215.2,485.5z"/>
		</g>
		<g>
			<path class="st0" d="M177,486.8c-1.6,0-3.2-0.5-4.6-1.4c-1.8-1.2-3-3-3.4-5.1c-0.4-2.1,0.1-4.2,1.3-6l39.5-56.8
				c1.5-2.2,4-3.5,6.7-3.5c1.6,0,3.2,0.5,4.6,1.4c1.8,1.2,3,3,3.4,5.1c0.4,2.1-0.1,4.2-1.3,6l-39.5,56.8
				C182.1,485.5,179.6,486.8,177,486.8z"/>
			<path class="st0" d="M177,484.7c-1.2,0-2.3-0.3-3.3-1c-2.7-1.8-3.4-5.4-1.5-8.1l39.5-56.8c1.8-2.7,5.5-3.3,8.2-1.5
				c2.7,1.8,3.4,5.4,1.5,8.1l-39.5,56.8C180.7,483.8,178.9,484.7,177,484.7z"/>
		</g>
	</g>
	<g>
		<g>
			<path class="st0" d="M321.8,490.4c-4.5,0-8.1-3.6-8.1-8c0-4.4,3.6-8,8.1-8h79.8c4.5,0,8.1,3.6,8.1,8c0,4.4-3.6,8-8.1,8H321.8z"/>
			<path class="st0" d="M401.6,488.2h-79.8c-3.3,0-5.9-2.6-5.9-5.8c0-3.2,2.7-5.8,5.9-5.8h79.8c3.3,0,5.9,2.6,5.9,5.8
				C407.6,485.6,404.9,488.2,401.6,488.2z"/>
		</g>
		<g>
			<path class="st0" d="M382.8,523.7c-2.8,0-5.4-1.4-6.9-3.8l-42.1-66.6c-2.4-3.7-1.2-8.6,2.6-11c1.3-0.8,2.8-1.2,4.3-1.2
				c2.8,0,5.4,1.4,6.9,3.8l42.1,66.6c2.4,3.7,1.2,8.6-2.6,11C385.8,523.3,384.3,523.7,382.8,523.7z"/>
			<path class="st0" d="M382.8,521.6c-2,0-3.9-1-5-2.8l-42.1-66.6c-1.7-2.7-0.9-6.3,1.9-8c2.8-1.7,6.4-0.9,8.2,1.9l42.1,66.6
				c1.7,2.7,0.9,6.3-1.9,8C384.9,521.3,383.9,521.6,382.8,521.6z"/>
		</g>
		<g>
			<path class="st0" d="M339.2,522.7c-1.6,0-3.2-0.5-4.6-1.4c-1.8-1.2-3-3-3.4-5.1c-0.4-2.1,0.1-4.2,1.3-6l45-64.8
				c1.5-2.2,4-3.5,6.7-3.5c1.6,0,3.2,0.5,4.6,1.4c1.8,1.2,3,3,3.4,5.1c0.4,2.1-0.1,4.2-1.3,6l-45,64.8
				C344.4,521.4,341.9,522.7,339.2,522.7z"/>
			<path class="st0" d="M339.2,520.6c-1.2,0-2.3-0.3-3.3-1c-2.7-1.8-3.4-5.4-1.5-8.1l45-64.8c1.9-2.7,5.5-3.3,8.2-1.5
				c2.7,1.8,3.4,5.4,1.5,8.1l-45,64.8C342.9,519.7,341.1,520.6,339.2,520.6z"/>
		</g>
	</g>
</g>
</svg>
