<?xml version="1.0" encoding="utf-8"?>
<!-- Generator: Adobe Illustrator 26.5.2, SVG Export Plug-In . SVG Version: 6.00 Build 0)  -->
<svg version="1.1" id="Ebene_1" xmlns="http://www.w3.org/2000/svg" xmlns:xlink="http://www.w3.org/1999/xlink" x="0px" y="0px"
	 viewBox="0 0 580 580" style="enable-background:new 0 0 580 580;" xml:space="preserve">
<style type="text/css">
	.st0{fill:#575756;}
</style>
<g>
	<g>
		<path class="st0" d="M286,429.5c-70.8,0-128.5-57.6-128.5-128.5c0-70.8,57.6-128.5,128.5-128.5S414.5,230.2,414.5,301
			C414.5,371.8,356.8,429.5,286,429.5z M286,188.6c-62,0-112.4,50.4-112.4,112.4c0,62,50.4,112.4,112.4,112.4S398.4,363,398.4,301
			C398.4,239,348,188.6,286,188.6z"/>
		<path class="st0" d="M286,427.3c-69.6,0-126.3-56.7-126.3-126.3c0-69.6,56.7-126.3,126.3-126.3c69.6,0,126.3,56.7,126.3,126.3
			C412.3,370.6,355.6,427.3,286,427.3z M286,186.5c-63.1,0-114.5,51.4-114.5,114.5c0,63.1,51.4,114.5,114.5,114.5
			S400.5,364.1,400.5,301C400.5,237.9,349.1,186.5,286,186.5z"/>
	</g>
	<g>
		<path class="st0" d="M286,144.8c-4.4,0-8-3.6-8-8V88c0-4.4,3.6-8,8-8s8,3.6,8,8v48.7C294,141.2,290.4,144.8,286,144.8z"/>
		<path class="st0" d="M286,142.6c-3.3,0-5.9-2.6-5.9-5.9V88c0-3.3,2.6-5.9,5.9-5.9s5.9,2.6,5.9,5.9v48.7
			C291.9,140,289.3,142.6,286,142.6z"/>
	</g>
	<g>
		<path class="st0" d="M402.1,192.9c-2.1,0-4.2-0.8-5.7-2.4c-1.5-1.5-2.4-3.5-2.4-5.7c0-2.1,0.8-4.2,2.4-5.7l34.4-34.4
			c1.5-1.5,3.5-2.4,5.7-2.4s4.2,0.8,5.7,2.4c1.5,1.5,2.4,3.5,2.4,5.7s-0.8,4.2-2.4,5.7l-34.4,34.4
			C406.3,192,404.3,192.9,402.1,192.9z"/>
		<path class="st0" d="M402.1,190.7c-1.5,0-3-0.6-4.2-1.7c-2.3-2.3-2.3-6,0-8.3l34.4-34.4c2.3-2.3,6-2.3,8.3,0c2.3,2.3,2.3,6,0,8.3
			L406.3,189C405.2,190.2,403.7,190.7,402.1,190.7z"/>
	</g>
	<g>
		<path class="st0" d="M450.3,309c-4.4,0-8-3.6-8-8c0-4.4,3.6-8,8-8H499c4.4,0,8,3.6,8,8c0,4.4-3.6,8-8,8H450.3z"/>
		<path class="st0" d="M499,306.9h-48.7c-3.3,0-5.9-2.6-5.9-5.9s2.6-5.9,5.9-5.9H499c3.3,0,5.9,2.6,5.9,5.9S502.2,306.9,499,306.9z"
			/>
	</g>
	<g>
		<path class="st0" d="M436.6,459.6c-2.1,0-4.2-0.8-5.7-2.4l-34.4-34.4c-1.5-1.5-2.4-3.5-2.4-5.7c0-2.1,0.8-4.2,2.4-5.7
			c1.5-1.5,3.5-2.4,5.7-2.4s4.2,0.8,5.7,2.4l34.4,34.4c1.5,1.5,2.4,3.5,2.4,5.7s-0.8,4.2-2.4,5.7
			C440.8,458.8,438.7,459.6,436.6,459.6z"/>
		<path class="st0" d="M436.6,457.5c-1.5,0-3-0.6-4.2-1.7L398,421.3c-2.3-2.3-2.3-6,0-8.3c2.3-2.3,6-2.3,8.3,0l34.4,34.4
			c2.3,2.3,2.3,6,0,8.3C439.6,456.9,438.1,457.5,436.6,457.5z"/>
	</g>
	<g>
		<path class="st0" d="M286,522c-4.4,0-8-3.6-8-8v-48.7c0-4.4,3.6-8,8-8s8,3.6,8,8V514C294,518.4,290.4,522,286,522z"/>
		<path class="st0" d="M286,519.9c-3.3,0-5.9-2.6-5.9-5.9v-48.7c0-3.3,2.6-5.9,5.9-5.9s5.9,2.6,5.9,5.9V514
			C291.9,517.2,289.3,519.9,286,519.9z"/>
	</g>
	<g>
		<path class="st0" d="M135.4,459.6c-2.1,0-4.2-0.8-5.7-2.4c-1.5-1.5-2.4-3.5-2.4-5.7s0.8-4.2,2.4-5.7l34.4-34.4
			c1.5-1.5,3.5-2.4,5.7-2.4s4.2,0.8,5.7,2.4c1.5,1.5,2.4,3.5,2.4,5.7c0,2.1-0.8,4.2-2.4,5.7l-34.4,34.4
			C139.6,458.8,137.6,459.6,135.4,459.6z"/>
		<path class="st0" d="M135.4,457.5c-1.5,0-3-0.6-4.2-1.7c-2.3-2.3-2.3-6,0-8.3l34.4-34.4c2.3-2.3,6-2.3,8.3,0c2.3,2.3,2.3,6,0,8.3
			l-34.4,34.4C138.4,456.9,136.9,457.5,135.4,457.5z"/>
	</g>
	<g>
		<path class="st0" d="M73,309c-4.4,0-8-3.6-8-8c0-4.4,3.6-8,8-8h48.7c4.4,0,8,3.6,8,8c0,4.4-3.6,8-8,8H73z"/>
		<path class="st0" d="M121.7,306.9H73c-3.3,0-5.9-2.6-5.9-5.9s2.6-5.9,5.9-5.9h48.7c3.3,0,5.9,2.6,5.9,5.9S125,306.9,121.7,306.9z"
			/>
	</g>
	<g>
		<path class="st0" d="M169.9,192.9c-2.1,0-4.2-0.8-5.7-2.4l-34.4-34.4c-1.5-1.5-2.4-3.5-2.4-5.7s0.8-4.2,2.4-5.7
			c1.5-1.5,3.5-2.4,5.7-2.4s4.2,0.8,5.7,2.4l34.4,34.4c1.5,1.5,2.4,3.5,2.4,5.7c0,2.1-0.8,4.2-2.4,5.7
			C174,192,172,192.9,169.9,192.9z"/>
		<path class="st0" d="M169.9,190.7c-1.5,0-3-0.6-4.2-1.7l-34.4-34.4c-2.3-2.3-2.3-6,0-8.3c2.3-2.3,6-2.3,8.3,0l34.4,34.4
			c2.3,2.3,2.3,6,0,8.3C172.9,190.2,171.4,190.7,169.9,190.7z"/>
	</g>
</g>
</svg>
