<?xml version="1.0" encoding="utf-8"?>
<!-- Generator: Adobe Illustrator 26.5.2, SVG Export Plug-In . SVG Version: 6.00 Build 0)  -->
<svg version="1.1" id="Ebene_1" xmlns="http://www.w3.org/2000/svg" xmlns:xlink="http://www.w3.org/1999/xlink" x="0px" y="0px"
	 viewBox="0 0 580 580" style="enable-background:new 0 0 580 580;" xml:space="preserve">
<style type="text/css">
	.st0{fill:#5F5E5E;}
</style>
<g>
	<g>
		<path class="st0" d="M401.4,399.7c-4.4,0-8.1-3.6-8.1-8.1c0-4.4,3.6-8.1,8.1-8.1h27c25.5,0,46.3-20.8,46.3-46.3
			s-20.8-46.3-46.3-46.3H428c-2.5,0-4.7-1.1-6.3-3c-1.5-1.9-2.1-4.4-1.6-6.8c0.2-0.9,0.2-2.4,0.2-3.9c0-28.7-23.3-52-52-52
			c-10.9,0-21.6,3.5-30.7,10.2c-1.4,1-3,1.5-4.7,1.5c-1.3,0-2.5-0.3-3.7-0.9c-2.7-1.4-4.4-4.1-4.4-7.2v-0.6
			c0-46.1-37.5-83.5-83.5-83.5c-45.9,0-83.3,37.5-83.3,83.5v1.8c0,2.5-1.1,4.7-3,6.3c-1.4,1.1-3.2,1.8-5,1.8c-0.6,0-1.2-0.1-1.7-0.2
			c-4.7-1-9.6-1.6-14.6-1.6C93,236.5,60,269.5,60,310c0,40.6,33,73.6,73.6,73.6c4.4,0,8.1,3.6,8.1,8.1c0,4.4-3.6,8.1-8.1,8.1
			c-49.5,0-89.7-40.2-89.7-89.7s40.2-89.7,89.7-89.7c2.9,0,5.8,0.1,8.6,0.4c3.9-51.8,47-92,99.1-92c24.8,0,48.7,9.2,67.1,26
			c17.5,16,28.7,37.4,31.7,60.7c8.9-4.1,18.4-6.2,28.2-6.2c36.9,0,67,29.5,68,66.2c14.6,1.9,28.1,8.9,38.1,19.9
			c10.5,11.5,16.3,26.5,16.3,42c0,34.4-28,62.4-62.4,62.4h-26.9V399.7z"/>
		<path class="st0" d="M428.4,397.6h-27c-3.3,0-5.9-2.6-5.9-5.9s2.6-5.9,5.9-5.9h27c26.7,0,48.5-21.7,48.5-48.5
			c0-26.7-21.7-48.5-48.5-48.5H428c-1.8,0-3.5-0.8-4.6-2.2c-1.1-1.4-1.5-3.2-1.2-5c0.2-1.1,0.2-2.7,0.2-4.4
			c0-29.8-24.3-54.1-54.1-54.1c-11.4,0-22.5,3.7-32,10.6c-1.8,1.3-4.2,1.5-6.1,0.5c-2-1-3.2-3-3.2-5.3v-0.6
			c0-47.2-38.4-85.7-85.7-85.7c-47.1,0-85.5,38.4-85.5,85.7v1.8c0,1.8-0.8,3.5-2.2,4.6s-3.2,1.5-5,1.2c-4.8-1.1-9.9-1.6-15.1-1.6
			c-41.8,0-75.7,34-75.7,75.7s34,75.7,75.7,75.7c3.3,0,5.9,2.6,5.9,5.9s-2.6,5.9-5.9,5.9C85.3,397.6,46,358.3,46,310
			s39.3-87.5,87.5-87.5c3.6,0,7.1,0.2,10.6,0.7c2.7-51.3,45.3-92.2,97.1-92.2c50.5,0,92.1,38.6,97,87.8c9.3-4.8,19.6-7.3,30-7.3
			c36.3,0,65.9,29.6,65.9,65.9l0,0c30.5,3,54.4,28.7,54.4,60C488.7,370.6,461.6,397.6,428.4,397.6z"/>
	</g>
	<g>
		<path class="st0" d="M428.5,286.4c-3.4,0-6.4-2.1-7.6-5.3c-0.7-2-0.6-4.2,0.3-6.2c0.9-1.9,2.5-3.4,4.6-4.1
			c28.3-10.1,47.2-37.1,47.2-67.1c0-39.4-32.1-71.5-71.6-71.5c-34,0-63.4,24.1-70,57.2c-0.7,3.8-4.1,6.5-7.9,6.5
			c-0.5,0-1.1-0.1-1.6-0.2c-2.1-0.4-3.9-1.6-5.1-3.4c-1.2-1.8-1.6-3.9-1.2-6c8.1-40.7,44.1-70.2,85.8-70.2
			c48.4,0,87.7,39.3,87.7,87.6c0,36.8-23.3,69.8-57.9,82.3C430.3,286.2,429.4,286.4,428.5,286.4z"/>
		<path class="st0" d="M428.5,284.2c-2.4,0-4.7-1.5-5.6-3.9c-1.1-3.1,0.5-6.5,3.6-7.6c29.1-10.5,48.7-38.2,48.7-69.1
			c0-40.6-33.1-73.7-73.8-73.7c-35,0-65.3,24.8-72.1,58.9c-0.6,3.2-3.7,5.3-6.9,4.6c-3.2-0.6-5.3-3.7-4.6-6.9
			c7.9-39.7,43.1-68.5,83.7-68.5c47.2,0,85.6,38.3,85.6,85.5c0,35.9-22.7,68.1-56.5,80.2C429.8,284.1,429.1,284.2,428.5,284.2z"/>
	</g>
	<g>
		<path class="st0" d="M401.4,108.9c-4.4,0-8.1-3.6-8.1-8.1V61.1c0-4.4,3.6-8.1,8.1-8.1s8.1,3.6,8.1,8.1v39.8
			C409.4,105.3,405.8,108.9,401.4,108.9z"/>
		<path class="st0" d="M401.4,106.8c-3.3,0-5.9-2.6-5.9-5.9V61.1c0-3.3,2.6-5.9,5.9-5.9s5.9,2.6,5.9,5.9v39.8
			C407.3,104.1,404.6,106.8,401.4,106.8z"/>
	</g>
	<g>
		<path class="st0" d="M474.1,139c-2.2,0-4.2-0.8-5.7-2.4c-3.1-3.1-3.1-8.2,0-11.4l28.1-28.1c1.5-1.5,3.5-2.4,5.7-2.4
			s4.2,0.8,5.7,2.4c3.1,3.1,3.1,8.2,0,11.4l-28.1,28.1C478.2,138.2,476.2,139,474.1,139z"/>
		<path class="st0" d="M474.1,136.9c-1.5,0-3-0.6-4.2-1.7c-2.3-2.3-2.3-6,0-8.3L498,98.6c2.3-2.3,6-2.3,8.3,0s2.3,6,0,8.3L478.2,135
			C477.1,136.3,475.6,136.9,474.1,136.9z"/>
	</g>
	<g>
		<path class="st0" d="M504.2,211.7c-4.4,0-8.1-3.6-8.1-8.1s3.6-8.1,8.1-8.1H544c4.4,0,8.1,3.6,8.1,8.1s-3.6,8.1-8.1,8.1H504.2z"/>
		<path class="st0" d="M543.9,209.5h-39.8c-3.3,0-5.9-2.6-5.9-5.9s2.6-5.9,5.9-5.9h39.8c3.3,0,5.9,2.6,5.9,5.9
			S547.2,209.5,543.9,209.5z"/>
	</g>
	<g>
		<path class="st0" d="M502.2,312.5c-2.2,0-4.2-0.8-5.7-2.4L468.4,282c-3.1-3.1-3.1-8.2,0-11.4c1.5-1.5,3.5-2.4,5.7-2.4
			s4.2,0.8,5.7,2.4l28.1,28.1c3.1,3.1,3.1,8.2,0,11.4C506.4,311.6,504.3,312.5,502.2,312.5z"/>
		<path class="st0" d="M502.2,310.3c-1.5,0-3-0.6-4.2-1.7l-28.1-28.1c-2.3-2.3-2.3-6,0-8.3s6-2.3,8.3,0l28.1,28.1
			c2.3,2.3,2.3,6,0,8.3C505.2,309.7,503.7,310.3,502.2,310.3z"/>
	</g>
	<g>
		<path class="st0" d="M328.7,139c-2.2,0-4.2-0.8-5.7-2.4l-28.1-28.1c-3.1-3.1-3.1-8.2,0-11.4c1.5-1.5,3.5-2.4,5.7-2.4
			s4.2,0.8,5.7,2.4l28.1,28.1c3.1,3.1,3.1,8.2,0,11.4C332.9,138.2,330.9,139,328.7,139z"/>
		<path class="st0" d="M328.7,136.9c-1.5,0-3-0.6-4.2-1.7L296.4,107c-2.3-2.3-2.3-6,0-8.3s6-2.3,8.3,0l28.1,28.1
			c2.3,2.3,2.3,6,0,8.3C331.7,136.3,330.2,136.9,328.7,136.9z"/>
	</g>
	<g>
		<path class="st0" d="M158.8,439.5c-1.1,0-2.1-0.2-3.1-0.6c-4.1-1.7-6-6.5-4.3-10.6l33.5-79c1.3-3,4.2-4.9,7.4-4.9
			c1.1,0,2.1,0.2,3.1,0.6c4.1,1.7,6,6.5,4.3,10.6l-33.5,79C164.9,437.6,162,439.5,158.8,439.5z"/>
		<path class="st0" d="M158.8,437.4c-0.8,0-1.6-0.2-2.3-0.5c-3-1.3-4.4-4.7-3.1-7.7l33.5-79c1.3-3,4.7-4.4,7.7-3.1s4.4,4.7,3.1,7.7
			l-33.5,79C163.3,436.1,161.1,437.4,158.8,437.4z"/>
	</g>
	<g>
		<path class="st0" d="M205.9,439.5c-1.1,0-2.1-0.2-3.1-0.6c-4.1-1.7-6-6.5-4.3-10.6l33.5-79c1.3-3,4.2-4.9,7.4-4.9
			c1.1,0,2.1,0.2,3.1,0.6c4.1,1.7,6,6.5,4.3,10.6l-33.5,79C212,437.6,209.1,439.5,205.9,439.5z"/>
		<path class="st0" d="M205.9,437.4c-0.8,0-1.6-0.2-2.3-0.5c-3-1.3-4.4-4.7-3.1-7.7l33.5-79c1.3-3,4.7-4.4,7.7-3.1s4.4,4.7,3.1,7.7
			l-33.5,79C210.4,436.1,208.2,437.4,205.9,437.4z"/>
	</g>
	<g>
		<path class="st0" d="M253,439.5c-1.1,0-2.1-0.2-3.1-0.6c-4.1-1.7-6-6.5-4.3-10.6l33.5-79c1.3-3,4.2-4.9,7.4-4.9
			c1.1,0,2.1,0.2,3.1,0.6c4.1,1.7,6,6.5,4.3,10.6l-33.5,79C259.1,437.6,256.2,439.5,253,439.5z"/>
		<path class="st0" d="M253,437.4c-0.8,0-1.6-0.2-2.3-0.5c-3-1.3-4.4-4.7-3.1-7.7l33.5-79c1.3-3,4.7-4.4,7.7-3.1s4.4,4.7,3.1,7.7
			l-33.5,79C257.4,436.1,255.3,437.4,253,437.4z"/>
	</g>
	<g>
		<path class="st0" d="M300.1,439.5c-1.1,0-2.1-0.2-3.1-0.6c-4.1-1.7-6-6.5-4.3-10.6l33.5-79c1.3-3,4.2-4.9,7.4-4.9
			c1.1,0,2.1,0.2,3.1,0.6c4.1,1.7,6,6.5,4.3,10.6l-33.5,79C306.2,437.6,303.3,439.5,300.1,439.5z"/>
		<path class="st0" d="M300.1,437.4c-0.8,0-1.6-0.2-2.3-0.5c-3-1.3-4.4-4.7-3.1-7.7l33.5-79c1.3-3,4.7-4.4,7.7-3.1s4.4,4.7,3.1,7.7
			l-33.5,79C304.5,436.1,302.4,437.4,300.1,437.4z"/>
	</g>
	<g>
		<path class="st0" d="M347.2,439.5c-1.1,0-2.1-0.2-3.1-0.6c-4.1-1.7-6-6.5-4.3-10.6l33.5-79c1.3-3,4.2-4.9,7.4-4.9
			c1.1,0,2.1,0.2,3.1,0.6c4.1,1.7,6,6.5,4.3,10.6l-33.5,79C353.3,437.6,350.4,439.5,347.2,439.5z"/>
		<path class="st0" d="M347.2,437.4c-0.8,0-1.6-0.2-2.3-0.5c-3-1.3-4.4-4.7-3.1-7.7l33.5-79c1.3-3,4.7-4.4,7.7-3.1s4.4,4.7,3.1,7.7
			l-33.5,79C351.6,436.1,349.4,437.4,347.2,437.4z"/>
	</g>
</g>
</svg>
