<?xml version="1.0" encoding="utf-8"?>
<!-- Generator: Adobe Illustrator 26.5.2, SVG Export Plug-In . SVG Version: 6.00 Build 0)  -->
<svg version="1.1" id="Ebene_1" xmlns="http://www.w3.org/2000/svg" xmlns:xlink="http://www.w3.org/1999/xlink" x="0px" y="0px"
	 viewBox="0 0 580 580" style="enable-background:new 0 0 580 580;" xml:space="preserve">
<style type="text/css">
	.st0{fill:#5F5E5E;}
</style>
<g>
	<g>
		<path class="st0" d="M134.1,401c-48.9,0-88.7-39.8-88.7-88.7s39.8-88.7,88.7-88.7c2.9,0,5.7,0.1,8.5,0.4c3.9-51.2,46.5-91,98.1-91
			c24.6,0,48.1,9.1,66.3,25.7c17.3,15.8,28.4,37,31.4,60c8.8-4.1,18.2-6.2,27.9-6.2c36.5,0,66.3,29.2,67.3,65.5
			c14.4,1.9,27.8,8.8,37.7,19.7c10.4,11.4,16.1,26.2,16.1,41.6c0,34-27.7,61.7-61.7,61.7L134.1,401L134.1,401z M134.1,239.5
			c-40.1,0-72.8,32.7-72.8,72.8s32.7,72.8,72.8,72.8h291.6c25.3,0,45.8-20.6,45.8-45.8c0-25.3-20.6-45.8-45.8-45.8h-0.4
			c-2.4,0-4.7-1.1-6.2-3s-2.1-4.3-1.6-6.7c0.2-0.9,0.2-2.4,0.2-3.9c0-28.3-23.1-51.4-51.4-51.4c-10.8,0-21.3,3.5-30.4,10
			c-1.4,1-3,1.5-4.7,1.5c-1.3,0-2.5-0.3-3.6-0.9c-2.7-1.4-4.3-4.1-4.3-7.1v-0.6c0-45.6-37.1-82.6-82.6-82.6s-82.4,37.1-82.4,82.6
			v1.7c0,2.4-1.1,4.7-3,6.2c-1.4,1.1-3.2,1.8-5,1.8c-0.6,0-1.2-0.1-1.7-0.2C143.9,240,139,239.5,134.1,239.5z"/>
		<path class="st0" d="M425.7,398.9H134.1c-47.8,0-86.6-38.9-86.6-86.6c0-47.8,38.9-86.6,86.6-86.6c3.5,0,7.1,0.2,10.5,0.7
			c2.7-50.8,44.8-91.3,96.1-91.3c49.9,0,91.1,38.2,96,86.9c9.2-4.8,19.4-7.3,29.7-7.3c36,0,65.2,29.3,65.2,65.2l0,0
			c30.1,2.9,53.8,28.4,53.8,59.3C485.3,372.1,458.6,398.9,425.7,398.9z M134.1,237.3c-41.3,0-74.9,33.6-74.9,74.9
			s33.6,74.9,74.9,74.9h291.6c26.4,0,47.9-21.5,47.9-47.9s-21.5-47.9-47.9-47.9h-0.4c-1.8,0-3.4-0.8-4.6-2.2
			c-1.1-1.4-1.5-3.2-1.1-4.9c0.2-1.1,0.2-2.7,0.2-4.3c0-29.5-24-53.5-53.5-53.5c-11.3,0-22.2,3.6-31.7,10.5
			c-1.8,1.3-4.1,1.5-6.1,0.5s-3.2-3-3.2-5.2v-0.6c0-46.7-38-84.8-84.8-84.8c-46.6,0-84.6,38-84.6,84.8v1.7c0,1.8-0.8,3.4-2.2,4.6
			c-1.4,1.1-3.2,1.5-4.9,1.1C144.2,237.9,139.2,237.3,134.1,237.3z"/>
	</g>
	<g>
		<path class="st0" d="M425.8,288.8c-3.4,0-6.4-2.1-7.5-5.3c-0.7-2-0.6-4.2,0.3-6.1s2.5-3.4,4.5-4.1c28-10,46.7-36.7,46.7-66.4
			c0-39-31.8-70.7-70.9-70.7c-33.6,0-62.7,23.8-69.2,56.6c-0.7,3.7-4,6.4-7.8,6.4c-0.5,0-1-0.1-1.6-0.2c-4.3-0.9-7.1-5.1-6.3-9.4
			c8-40.2,43.7-69.4,84.9-69.4c47.9,0,86.8,38.9,86.8,86.7c0,36.4-23,69.1-57.3,81.4C427.6,288.7,426.7,288.8,425.8,288.8z"/>
		<path class="st0" d="M425.8,286.7c-2.4,0-4.6-1.5-5.5-3.9c-1.1-3,0.5-6.4,3.5-7.5c28.8-10.3,48.1-37.8,48.1-68.4
			c0-40.2-32.7-72.9-73-72.9c-34.6,0-64.6,24.5-71.3,58.3c-0.6,3.2-3.7,5.2-6.9,4.6c-3.2-0.6-5.2-3.7-4.6-6.9
			c7.8-39.2,42.6-67.7,82.8-67.7c46.7,0,84.7,37.9,84.7,84.5c0,35.5-22.5,67.4-55.9,79.4C427.1,286.6,426.4,286.7,425.8,286.7z"/>
	</g>
	<g>
		<path class="st0" d="M399,113.3c-4.4,0-8-3.6-8-8V65.9c0-4.4,3.6-8,8-8s8,3.6,8,8v39.4C407,109.7,403.4,113.3,399,113.3z"/>
		<path class="st0" d="M399,111.2c-3.2,0-5.8-2.6-5.8-5.8V65.9c0-3.2,2.6-5.8,5.8-5.8c3.2,0,5.8,2.6,5.8,5.8v39.4
			C404.8,108.5,402.2,111.2,399,111.2z"/>
	</g>
	<g>
		<path class="st0" d="M470.9,143.1c-2.1,0-4.1-0.8-5.6-2.3c-3.1-3.1-3.1-8.2,0-11.3l27.8-27.8c1.5-1.5,3.5-2.3,5.6-2.3
			s4.1,0.8,5.6,2.3c3.1,3.1,3.1,8.2,0,11.3l-27.8,27.8C475,142.2,473,143.1,470.9,143.1z"/>
		<path class="st0" d="M470.9,140.9c-1.5,0-3-0.6-4.1-1.7c-2.3-2.3-2.3-6,0-8.3l27.8-27.8c2.3-2.3,6-2.3,8.3,0s2.3,6,0,8.3
			L475,139.2C473.9,140.4,472.4,140.9,470.9,140.9z"/>
	</g>
	<g>
		<path class="st0" d="M500.7,214.9c-4.4,0-8-3.6-8-8s3.6-8,8-8H540c4.4,0,8,3.6,8,8s-3.6,8-8,8H500.7z"/>
		<path class="st0" d="M540,212.8h-39.4c-3.2,0-5.8-2.6-5.8-5.8s2.6-5.8,5.8-5.8H540c3.2,0,5.8,2.6,5.8,5.8
			C545.9,210.2,543.3,212.8,540,212.8z"/>
	</g>
	<g>
		<path class="st0" d="M498.7,314.7c-2.1,0-4.1-0.8-5.6-2.3l-27.8-27.8c-3.1-3.1-3.1-8.2,0-11.3c1.5-1.5,3.5-2.3,5.6-2.3
			s4.1,0.8,5.6,2.3l27.8,27.8c3.1,3.1,3.1,8.2,0,11.3C502.9,313.8,500.9,314.7,498.7,314.7z"/>
		<path class="st0" d="M498.7,312.5c-1.5,0-3-0.6-4.1-1.7L466.8,283c-2.3-2.3-2.3-6,0-8.3s6-2.3,8.3,0l27.8,27.8
			c2.3,2.3,2.3,6,0,8.3C501.7,312,500.2,312.5,498.7,312.5z"/>
	</g>
	<g>
		<path class="st0" d="M327.1,143.1c-2.1,0-4.1-0.8-5.6-2.3L293.7,113c-3.1-3.1-3.1-8.2,0-11.3c1.5-1.5,3.5-2.3,5.6-2.3
			s4.1,0.8,5.6,2.3l27.8,27.8c3.1,3.1,3.1,8.2,0,11.3C331.2,142.2,329.2,143.1,327.1,143.1z"/>
		<path class="st0" d="M327.1,140.9c-1.5,0-3-0.6-4.1-1.7l-27.8-27.8c-2.3-2.3-2.3-6,0-8.3s6-2.3,8.3,0l27.8,27.8
			c2.3,2.3,2.3,6,0,8.3C330.1,140.4,328.6,140.9,327.1,140.9z"/>
	</g>
</g>
</svg>
