<?xml version="1.0" encoding="utf-8"?>
<!-- Generator: Adobe Illustrator 26.5.2, SVG Export Plug-In . SVG Version: 6.00 Build 0)  -->
<svg version="1.1" id="Ebene_1" xmlns="http://www.w3.org/2000/svg" xmlns:xlink="http://www.w3.org/1999/xlink" x="0px" y="0px"
	 viewBox="0 0 580 580" style="enable-background:new 0 0 580 580;" xml:space="preserve">
<style type="text/css">
	.st0{fill:#575756;}
</style>
<g>
	<g>
		<g>
			<path class="st0" d="M360.3,306.9c-19.9,0-36.1-16.2-36.1-36.1c0-19.6,15.8-35.7,35.3-36.1c3.4-18.6,19.9-32.4,38.9-32.4
				c17.8,0,33.6,12.2,38.2,29.3c2.2-0.5,4.4-0.8,6.7-0.8c14.2,0,26,10.3,28.1,24.1c11.4,3.1,19.5,13.6,19.5,25.5
				c0,14.6-11.9,26.5-26.5,26.5H360.3z M360.3,249.2c-11.9,0-21.6,9.7-21.6,21.6c0,11.9,9.7,21.6,21.6,21.6h104.2
				c6.6,0,12-5.4,12-12c0-6.6-5.4-12-12-12h-0.1c-2.2,0-4.3-1-5.6-2.7c-1.3-1.7-1.9-3.8-1.5-5.9c0-0.1,0-0.4,0-0.6
				c0-7.7-6.3-14-14-14c-2.9,0-5.8,1-8.3,2.8c-1.2,0.9-2.7,1.4-4.2,1.4c-1.1,0-2.3-0.3-3.3-0.8c-2.4-1.2-3.9-3.7-3.9-6.4v-0.2
				c0-13.9-11.3-25.1-25.1-25.1c-13.8,0-25.1,11.3-25.1,25.1v0.6c0,2.2-1,4.3-2.7,5.6c-1.3,1-2.9,1.6-4.5,1.6
				c-0.5,0-1.1-0.1-1.6-0.2C363.2,249.3,361.8,249.2,360.3,249.2z"/>
			<path class="st0" d="M464.5,305H360.3c-18.8,0-34.2-15.3-34.2-34.2c0-18.8,15.3-34.2,34.2-34.2c0.3,0,0.6,0,0.9,0
				c2.6-18.3,18.3-32.4,37.2-32.4c18,0,33.2,12.8,36.8,29.7c2.6-0.8,5.3-1.3,8.1-1.3c13.7,0,25,10.4,26.4,23.8
				c11.1,2.4,19.4,12.2,19.4,24C489.1,294,478.1,305,464.5,305z M360.3,247.2c-13,0-23.6,10.6-23.6,23.6c0,13,10.6,23.6,23.6,23.6
				h104.2c7.7,0,13.9-6.2,13.9-13.9c0-7.7-6.2-13.9-13.9-13.9h-0.1c-1.6,0-3.1-0.7-4.1-2c-1-1.3-1.4-2.9-1-4.5c0-0.1,0-0.5,0-0.8
				c0-8.8-7.1-15.9-15.9-15.9c-3.3,0-6.6,1.1-9.4,3.1c-1.6,1.2-3.7,1.3-5.5,0.4c-1.8-0.9-2.9-2.7-2.9-4.7v-0.2
				c0-14.9-12.1-27.1-27.1-27.1c-14.9,0-27,12.1-27,27.1v0.6c0,1.6-0.7,3.1-2,4.1c-1.3,1-2.9,1.4-4.5,1
				C363.5,247.4,361.9,247.2,360.3,247.2z"/>
		</g>
		<g>
			<path class="st0" d="M57.5,384.1c-25.6,0-46.4-20.8-46.4-46.4c0-25.6,20.8-46.4,46.4-46.4c0.4,0,0.7,0,1.1,0
				c3.5-25.2,25-44,50.6-44c24.3,0,45,16.8,50,40.3c3.5-1.1,7.2-1.7,10.9-1.7c18.5,0,33.9,14,35.8,32.3
				c15.3,3.3,26.3,16.8,26.3,32.6c0,18.4-14.9,33.3-33.3,33.3H57.5z M57.5,305.8c-17.6,0-31.9,14.3-31.9,31.9
				c0,17.6,14.3,31.9,31.9,31.9h141.4c10.4,0,18.8-8.5,18.8-18.8s-8.5-18.8-18.8-18.8h-0.2c-2.2,0-4.3-1-5.6-2.7s-1.9-3.9-1.4-6.1
				c0-0.1,0-0.8,0-1.1c0-11.9-9.7-21.6-21.6-21.6c-4.5,0-8.9,1.5-12.8,4.2c-1.2,0.9-2.7,1.4-4.3,1.4c-1.1,0-2.3-0.3-3.3-0.8
				c-2.4-1.2-3.9-3.7-3.9-6.4v-0.3c0-20.2-16.5-36.7-36.7-36.7c-20.2,0-36.6,16.5-36.6,36.7v0.8c0,2.2-1,4.3-2.7,5.6
				c-1.3,1-2.9,1.6-4.5,1.6c-0.5,0-1.1-0.1-1.6-0.2C61.8,306,59.7,305.8,57.5,305.8z"/>
			<path class="st0" d="M198.9,382.2H57.5c-24.5,0-44.5-20-44.5-44.5c0-24.5,20-44.5,44.5-44.5c0.9,0,1.9,0,2.8,0.1
				c2.6-24.7,23.5-44,48.9-44c24.3,0,44.6,17.7,48.6,41c3.9-1.6,8.1-2.4,12.4-2.4c18.1,0,32.9,14.1,34,31.9
				c14.8,2.5,26.2,15.4,26.2,31C230.3,368.1,216.2,382.2,198.9,382.2z M57.5,303.9c-18.7,0-33.9,15.2-33.9,33.9
				c0,18.7,15.2,33.9,33.9,33.9h141.4c11.5,0,20.8-9.3,20.8-20.8c0-11.5-9.3-20.8-20.8-20.8h-0.2c-1.6,0-3.1-0.7-4.1-2
				c-1-1.3-1.4-2.9-1-4.5c0.1-0.3,0.1-1,0.1-1.6c0-12.9-10.5-23.5-23.5-23.5c-4.9,0-9.8,1.6-13.9,4.6c-1.6,1.2-3.7,1.3-5.5,0.4
				c-1.8-0.9-2.9-2.7-2.9-4.7v-0.3c0-21.3-17.3-38.6-38.6-38.6c-21.2,0-38.5,17.3-38.5,38.6v0.8c0,1.6-0.7,3.1-2,4.1
				c-1.3,1-2.9,1.4-4.5,1C62.1,304.1,59.8,303.9,57.5,303.9z"/>
		</g>
		<g>
			<path class="st0" d="M464.4,400.7c-15.5,0-28.1-12.6-28.1-28.1c0-14.6,11.5-26.9,25.9-28.1c3.3-13.7,15.6-23.5,29.8-23.5
				c13.2,0,24.9,8.5,29.1,20.9c1.1-0.2,2.3-0.3,3.5-0.3c10.6,0,19.9,7.6,22.1,17.9c8.5,2.9,14.4,11,14.4,20.1
				c0,11.7-9.5,21.2-21.2,21.2H464.4z M464.4,358.9c-7.5,0-13.7,6.1-13.7,13.7c0,7.5,6.1,13.7,13.7,13.7h75.5c3.7,0,6.7-3,6.7-6.7
				c0-3.7-3-6.7-6.7-6.7h-0.1c-2.2,0-4.3-1-5.6-2.7c-1.3-1.6-1.8-3.7-1.5-5.7c0,0,0-0.2,0-0.2c0-4.5-3.6-8.1-8.1-8.1
				c-2.2,0-3.8,0.9-4.8,1.6c-1.2,0.9-2.7,1.4-4.2,1.4c-1.1,0-2.3-0.3-3.3-0.8c-2.4-1.2-3.9-3.7-3.9-6.4v-0.1
				c0-8.9-7.3-16.2-16.2-16.2c-8.9,0-16.2,7.3-16.2,16.2v0.4c0,2.2-1,4.3-2.7,5.6c-1.3,1-2.9,1.6-4.5,1.6c-0.5,0-1.1-0.1-1.6-0.2
				C466.2,359,465.3,358.9,464.4,358.9z"/>
			<path class="st0" d="M539.8,398.7h-75.5c-14.5,0-26.2-11.8-26.2-26.2c0-14.2,11.4-25.9,25.6-26.2c2.5-13.3,14.2-23.5,28.2-23.5
				c13.2,0,24.4,9,27.7,21.2c1.6-0.4,3.2-0.6,4.8-0.6c10.3,0,18.9,7.6,20.4,17.5c8.2,2.2,14.2,9.7,14.2,18.6
				C559.1,390.1,550.4,398.7,539.8,398.7z M464.4,356.9c-8.6,0-15.6,7-15.6,15.6c0,8.6,7,15.6,15.6,15.6h75.5c4.7,0,8.6-3.9,8.6-8.6
				s-3.9-8.6-8.6-8.6h-0.1c-1.6,0-3.1-0.7-4.1-2c-1-1.2-1.4-2.8-1.1-4.3c0-0.1,0-0.3,0-0.4c0-5.5-4.5-10.1-10.1-10.1
				c-2.7,0-4.7,1.1-6,2c-1.6,1.2-3.7,1.3-5.5,0.4c-1.8-0.9-2.9-2.7-2.9-4.7v-0.1c0-10-8.1-18.1-18.1-18.1c-10,0-18.1,8.1-18.1,18.1
				v0.4c0,1.6-0.7,3.1-2,4.1c-1.3,1-2.9,1.4-4.5,1C466.4,357,465.4,356.9,464.4,356.9z M534.6,364.5
				C534.6,364.5,534.6,364.5,534.6,364.5C534.6,364.5,534.6,364.5,534.6,364.5z M534.6,364.5C534.6,364.5,534.6,364.5,534.6,364.5
				C534.6,364.5,534.6,364.5,534.6,364.5z M534.6,364.4C534.6,364.5,534.6,364.5,534.6,364.4C534.6,364.5,534.6,364.5,534.6,364.4z"
				/>
		</g>
	</g>
	<g>
		<path class="st0" d="M286.1,429.5c-39.2,0-75.6-17.5-99.9-48.1c-1.2-1.5-1.7-3.4-1.5-5.3c0.2-1.9,1.2-3.6,2.7-4.8
			c1.3-1,2.9-1.6,4.5-1.6c2.2,0,4.3,1,5.7,2.7c21.6,27.1,53.9,42.6,88.6,42.6c62.5,0,113.4-50.9,113.4-113.5v-1.9
			c0-4,3.2-7.2,7.2-7.2s7.2,3.2,7.2,7.2v1.9C414,372.1,356.6,429.5,286.1,429.5z"/>
		<path class="st0" d="M286.1,427.5c-38.6,0-74.5-17.2-98.4-47.3c-1.8-2.3-1.4-5.6,0.8-7.5c2.3-1.8,5.6-1.4,7.5,0.8
			c21.9,27.5,54.8,43.3,90.1,43.3c63.6,0,115.3-51.8,115.3-115.4v-1.9c0-2.9,2.4-5.3,5.3-5.3c2.9,0,5.3,2.4,5.3,5.3v1.9
			C412,371,355.5,427.5,286.1,427.5z"/>
	</g>
	<g>
		<path class="st0" d="M165.6,300.8c-0.2,0-0.3,0-0.5,0c-4-0.3-7-3.7-6.8-7.7c4.4-67,60.5-119.4,127.7-119.4c35.8,0,70,15.1,94,41.4
			c2.7,2.9,2.5,7.5-0.5,10.2c-1.3,1.2-3.1,1.9-4.9,1.9c-2,0-4-0.9-5.3-2.4c-21.2-23.3-51.6-36.6-83.3-36.6
			c-59.7,0-109.4,46.5-113.3,105.9C172.5,297.8,169.4,300.8,165.6,300.8z"/>
		<path class="st0" d="M165.6,298.8c-0.1,0-0.2,0-0.4,0c-2.9-0.2-5.1-2.7-5-5.6c4.3-66,59.6-117.6,125.8-117.6
			c35.2,0,69,14.8,92.6,40.7c2,2.2,1.8,5.5-0.3,7.5c-2.2,2-5.5,1.8-7.5-0.3c-21.6-23.7-52.5-37.3-84.7-37.3
			c-60.7,0-111.3,47.3-115.2,107.7C170.7,296.7,168.4,298.8,165.6,298.8z"/>
	</g>
	<g>
		<path class="st0" d="M286,144.1c-4,0-7.2-3.2-7.2-7.2V88.1c0-4,3.2-7.2,7.2-7.2c4,0,7.2,3.2,7.2,7.2v48.8
			C293.3,140.9,290,144.1,286,144.1z"/>
		<path class="st0" d="M286,142.2c-2.9,0-5.3-2.4-5.3-5.3V88.1c0-2.9,2.4-5.3,5.3-5.3s5.3,2.4,5.3,5.3v48.8
			C291.3,139.8,289,142.2,286,142.2z"/>
	</g>
	<g>
		<path class="st0" d="M402.4,192.3c-1.9,0-3.8-0.8-5.1-2.1c-1.4-1.4-2.1-3.2-2.1-5.1c0-1.9,0.8-3.8,2.1-5.1l34.5-34.5
			c1.4-1.4,3.2-2.1,5.1-2.1c1.9,0,3.8,0.8,5.1,2.1c1.4,1.4,2.1,3.2,2.1,5.1c0,1.9-0.8,3.8-2.1,5.1l-34.5,34.5
			C406.2,191.6,404.4,192.3,402.4,192.3z"/>
		<path class="st0" d="M402.4,190.4c-1.4,0-2.7-0.5-3.8-1.6c-2.1-2.1-2.1-5.4,0-7.5l34.5-34.5c2.1-2.1,5.4-2.1,7.5,0
			c2.1,2.1,2.1,5.4,0,7.5l-34.5,34.5C405.2,189.9,403.8,190.4,402.4,190.4z"/>
	</g>
	<g>
		<path class="st0" d="M437,459.7c-1.9,0-3.8-0.8-5.1-2.1L397.3,423c-1.4-1.4-2.1-3.2-2.1-5.1s0.8-3.8,2.1-5.1
			c1.4-1.4,3.2-2.1,5.1-2.1s3.8,0.8,5.1,2.1l34.5,34.5c1.4,1.4,2.1,3.2,2.1,5.1s-0.8,3.8-2.1,5.1C440.7,458.9,438.9,459.7,437,459.7
			z"/>
		<path class="st0" d="M437,457.7c-1.4,0-2.7-0.5-3.8-1.6l-34.5-34.5c-2.1-2.1-2.1-5.4,0-7.5c2.1-2.1,5.4-2.1,7.5,0l34.5,34.5
			c2.1,2.1,2.1,5.4,0,7.5C439.7,457.2,438.3,457.7,437,457.7z"/>
	</g>
	<g>
		<path class="st0" d="M286,522.2c-4,0-7.2-3.2-7.2-7.2v-48.8c0-4,3.2-7.2,7.2-7.2c4,0,7.2,3.2,7.2,7.2v48.8
			C293.3,518.9,290,522.2,286,522.2z"/>
		<path class="st0" d="M286,520.2c-2.9,0-5.3-2.4-5.3-5.3v-48.8c0-2.9,2.4-5.3,5.3-5.3s5.3,2.4,5.3,5.3v48.8
			C291.3,517.9,289,520.2,286,520.2z"/>
	</g>
	<g>
		<path class="st0" d="M135.1,459.7c-1.9,0-3.8-0.8-5.1-2.1c-1.4-1.4-2.1-3.2-2.1-5.1s0.8-3.8,2.1-5.1l34.5-34.5
			c1.4-1.4,3.2-2.1,5.1-2.1s3.8,0.8,5.1,2.1c1.4,1.4,2.1,3.2,2.1,5.1s-0.8,3.8-2.1,5.1l-34.5,34.5
			C138.9,458.9,137,459.7,135.1,459.7z"/>
		<path class="st0" d="M135.1,457.7c-1.4,0-2.7-0.5-3.8-1.6c-2.1-2.1-2.1-5.4,0-7.5l34.5-34.5c2.1-2.1,5.4-2.1,7.5,0
			c2.1,2.1,2.1,5.4,0,7.5l-34.5,34.5C137.8,457.2,136.5,457.7,135.1,457.7z"/>
	</g>
	<g>
		<path class="st0" d="M169.6,192.3c-1.9,0-3.8-0.8-5.1-2.1L130,155.7c-1.4-1.4-2.1-3.2-2.1-5.1c0-1.9,0.8-3.8,2.1-5.1
			c1.4-1.4,3.2-2.1,5.1-2.1c1.9,0,3.8,0.8,5.1,2.1l34.5,34.5c1.4,1.4,2.1,3.2,2.1,5.1c0,1.9-0.8,3.8-2.1,5.1
			C173.4,191.6,171.6,192.3,169.6,192.3z"/>
		<path class="st0" d="M169.6,190.4c-1.4,0-2.7-0.5-3.8-1.6l-34.5-34.5c-2.1-2.1-2.1-5.4,0-7.5c2.1-2.1,5.4-2.1,7.5,0l34.5,34.5
			c2.1,2.1,2.1,5.4,0,7.5C172.3,189.9,171,190.4,169.6,190.4z"/>
	</g>
</g>
</svg>
